<?xml version="1.0" encoding="utf-8"?>
<!-- Generator: Adobe Illustrator 16.0.0, SVG Export Plug-In . SVG Version: 6.00 Build 0)  -->
<!DOCTYPE svg PUBLIC "-//W3C//DTD SVG 1.1//EN" "http://www.w3.org/Graphics/SVG/1.1/DTD/svg11.dtd">
<svg version="1.1" id="Layer_1" xmlns="http://www.w3.org/2000/svg" xmlns:xlink="http://www.w3.org/1999/xlink" x="0px" y="0px"
	 width="222.021px" height="312.809px" viewBox="0 0 222.021 312.809" enable-background="new 0 0 222.021 312.809"
	 xml:space="preserve">
<path fill="none" stroke="#E20613" stroke-width="21.2599" stroke-linecap="round" stroke-linejoin="round" stroke-miterlimit="10" d="
	M146.979,164.906v-30.062c0-18.688-12.216-34.01-32.698-35.482"/>
<path fill="none" stroke="#E20613" stroke-width="21.2599" stroke-linecap="round" stroke-linejoin="round" stroke-miterlimit="10" d="
	M126.1,210.767c13.272-5.402,20.879-18.053,20.879-32.798v-13.063"/>
<path fill="none" stroke="#E20613" stroke-width="21.2599" stroke-linecap="round" stroke-linejoin="round" stroke-miterlimit="10" d="
	M75.041,161.656v16.313c0,19.66,13.522,35.596,35.969,35.596c5.611,0,10.666-0.996,15.092-2.798"/>
<path fill="none" stroke="#E20613" stroke-width="21.2599" stroke-linecap="round" stroke-linejoin="round" stroke-miterlimit="10" d="
	M81.362,113.636c-4.113,5.923-6.321,13.261-6.321,21.207v26.812"/>
<path fill="none" stroke="#E20613" stroke-width="21.2599" stroke-linecap="round" stroke-linejoin="round" stroke-miterlimit="10" d="
	M114.281,99.361c-1.068-0.076-2.159-0.115-3.271-0.115c-13.375,0-23.581,5.657-29.646,14.392"/>
</svg>
