<?xml version="1.0" encoding="utf-8"?>
<!-- Generator: Adobe Illustrator 16.0.0, SVG Export Plug-In . SVG Version: 6.00 Build 0)  -->
<!DOCTYPE svg PUBLIC "-//W3C//DTD SVG 1.1//EN" "http://www.w3.org/Graphics/SVG/1.1/DTD/svg11.dtd">
<svg version="1.1" id="Layer_1" xmlns="http://www.w3.org/2000/svg" xmlns:xlink="http://www.w3.org/1999/xlink" x="0px" y="0px"
	 width="222.021px" height="312.809px" viewBox="0 0 222.021 312.809" enable-background="new 0 0 222.021 312.809"
	 xml:space="preserve">
<path fill="none" stroke="#E20613" stroke-width="21.2599" stroke-linecap="round" stroke-linejoin="round" stroke-miterlimit="10" d="
	M95.305,212.169c-4.625-0.923-9.396-2.261-13.417-3.861"/>
<path fill="none" stroke="#E20613" stroke-width="21.2599" stroke-linecap="round" stroke-linejoin="round" stroke-miterlimit="10" d="
	M137.859,195.803c-4.938,11.926-17.288,17.821-30.798,17.742c-3.32-0.022-7.477-0.521-11.756-1.376"/>
<path fill="none" stroke="#E20613" stroke-width="21.2599" stroke-linecap="round" stroke-linejoin="round" stroke-miterlimit="10" d="
	M114.801,155.964c14.871,3.143,25.333,13.287,25.333,27.663c0,4.588-0.812,8.646-2.273,12.176"/>
<path fill="none" stroke="#E20613" stroke-width="21.2599" stroke-linecap="round" stroke-linejoin="round" stroke-miterlimit="10" d="
	M122.322,149.333c-5.276,2.99-11.764,4.873-18.938,5.617c4.006-0.094,7.84,0.258,11.417,1.015"/>
<path fill="none" stroke="#E20613" stroke-width="21.2599" stroke-linecap="round" stroke-linejoin="round" stroke-miterlimit="10" d="
	M126.296,105.019c6.057,4.359,9.912,11.319,9.912,21.291c0,10.476-5.363,18.193-13.886,23.023"/>
<path fill="none" stroke="#E20613" stroke-width="21.2599" stroke-linecap="round" stroke-linejoin="round" stroke-miterlimit="10" d="
	M92.131,101.438c4.685-1.307,9.336-2.151,13.278-2.173c7.957-0.049,15.343,1.763,20.887,5.754"/>
<path fill="none" stroke="#E20613" stroke-width="21.2599" stroke-linecap="round" stroke-linejoin="round" stroke-miterlimit="10" d="
	M82.944,104.547c2.943-1.169,6.072-2.241,9.187-3.109"/>
</svg>
