<?xml version="1.0" encoding="utf-8"?>
<!-- Generator: Adobe Illustrator 16.0.0, SVG Export Plug-In . SVG Version: 6.00 Build 0)  -->
<!DOCTYPE svg PUBLIC "-//W3C//DTD SVG 1.1//EN" "http://www.w3.org/Graphics/SVG/1.1/DTD/svg11.dtd">
<svg version="1.1" id="Layer_1" xmlns="http://www.w3.org/2000/svg" xmlns:xlink="http://www.w3.org/1999/xlink" x="0px" y="0px"
	 width="222.021px" height="312.809px" viewBox="0 0 222.021 312.809" enable-background="new 0 0 222.021 312.809"
	 xml:space="preserve">
<path fill="none" stroke="#E20613" stroke-width="21.2599" stroke-linecap="round" stroke-linejoin="round" stroke-miterlimit="10" d="
	M139.916,139.349c-2.415,5.028-6.535,8.746-12.021,11.334"/>
<path fill="none" stroke="#E20613" stroke-width="21.2599" stroke-linecap="round" stroke-linejoin="round" stroke-miterlimit="10" d="
	M141.373,119.234c0.65,2.52,0.998,5.285,0.998,8.305c0,4.551-0.852,8.47-2.455,11.811"/>
<path fill="none" stroke="#E20613" stroke-width="21.2599" stroke-linecap="round" stroke-linejoin="round" stroke-miterlimit="10" d="
	M106.334,99.457c1.527-0.149,3.085-0.218,4.665-0.208h0.023c14.313-0.091,26.813,6.284,30.351,19.984"/>
<path fill="none" stroke="#E20613" stroke-width="21.2599" stroke-linecap="round" stroke-linejoin="round" stroke-miterlimit="10" d="
	M84.761,110.465c4.834-6.547,12.662-10.14,21.572-11.008"/>
<path fill="none" stroke="#E20613" stroke-width="21.2599" stroke-linecap="round" stroke-linejoin="round" stroke-miterlimit="10" d="
	M80.643,135.408c-0.653-2.382-0.992-5-0.992-7.87c0-7.046,1.892-12.714,5.11-17.073"/>
<path fill="none" stroke="#E20613" stroke-width="21.2599" stroke-linecap="round" stroke-linejoin="round" stroke-miterlimit="10" d="
	M99.455,152.716c-9.711-2.975-16.399-8.521-18.812-17.308"/>
<path fill="none" stroke="#E20613" stroke-width="21.2599" stroke-linecap="round" stroke-linejoin="round" stroke-miterlimit="10" d="
	M97.979,156.704c3.993-1.151,8.385-1.748,13.043-1.748c-4.207-0.437-8.082-1.172-11.567-2.24"/>
<path fill="none" stroke="#E20613" stroke-width="21.2599" stroke-linecap="round" stroke-linejoin="round" stroke-miterlimit="10" d="
	M80.517,168.909c3.777-5.862,9.901-10.027,17.461-12.206"/>
<path fill="none" stroke="#E20613" stroke-width="21.2599" stroke-linecap="round" stroke-linejoin="round" stroke-miterlimit="10" d="
	M76.605,188.285c-0.17-1.433-0.258-2.928-0.258-4.485c0-5.745,1.498-10.743,4.171-14.891"/>
<path fill="none" stroke="#E20613" stroke-width="21.2599" stroke-linecap="round" stroke-linejoin="round" stroke-miterlimit="10" d="
	M93.57,210.74c-9.023-3.691-15.607-11.064-16.965-22.455"/>
<path fill="none" stroke="#E20613" stroke-width="21.2599" stroke-linecap="round" stroke-linejoin="round" stroke-miterlimit="10" d="
	M125.972,211.643c-4.09,1.315-8.59,1.945-13.273,1.917h-3.376c-5.652,0.034-11.036-0.89-15.753-2.818"/>
<path fill="none" stroke="#E20613" stroke-width="21.2599" stroke-linecap="round" stroke-linejoin="round" stroke-miterlimit="10" d="
	M145.59,186.4c-0.896,13.524-8.822,21.771-19.616,25.243"/>
<path fill="none" stroke="#E20613" stroke-width="21.2599" stroke-linecap="round" stroke-linejoin="round" stroke-miterlimit="10" d="
	M140.276,167.16c3.438,4.464,5.396,10.062,5.396,16.64c0,0.888-0.027,1.754-0.084,2.6"/>
<path fill="none" stroke="#E20613" stroke-width="21.2599" stroke-linecap="round" stroke-linejoin="round" stroke-miterlimit="10" d="
	M122.928,156.394c7.288,1.876,13.327,5.547,17.348,10.768"/>
<path fill="none" stroke="#E20613" stroke-width="21.2599" stroke-linecap="round" stroke-linejoin="round" stroke-miterlimit="10" d="
	M121.034,153.162c-3.071,0.83-6.42,1.421-10.012,1.794c4.221,0,8.223,0.488,11.905,1.438"/>
<path fill="none" stroke="#E20613" stroke-width="21.2599" stroke-linecap="round" stroke-linejoin="round" stroke-miterlimit="10" d="
	M127.895,150.683c-2.096,0.988-4.39,1.812-6.861,2.479"/>
</svg>
