<?xml version="1.0" encoding="utf-8"?>
<!-- Generator: Adobe Illustrator 16.0.0, SVG Export Plug-In . SVG Version: 6.00 Build 0)  -->
<!DOCTYPE svg PUBLIC "-//W3C//DTD SVG 1.1//EN" "http://www.w3.org/Graphics/SVG/1.1/DTD/svg11.dtd">
<svg version="1.1" id="Layer_1" xmlns="http://www.w3.org/2000/svg" xmlns:xlink="http://www.w3.org/1999/xlink" x="0px" y="0px"
	 width="222.021px" height="312.809px" viewBox="0 0 222.021 312.809" enable-background="new 0 0 222.021 312.809"
	 xml:space="preserve">
<path fill="none" stroke="#E20613" stroke-width="21.2599" stroke-linecap="round" stroke-linejoin="round" stroke-miterlimit="10" d="
	M91.26,154.053H79.545"/>
<path fill="none" stroke="#E20613" stroke-width="21.2599" stroke-linecap="round" stroke-linejoin="round" stroke-miterlimit="10" d="
	M109.01,154.053H91.26"/>
<path fill="none" stroke="#E20613" stroke-width="21.2599" stroke-linecap="round" stroke-linejoin="round" stroke-miterlimit="10" d="
	M137.378,135.445c-3.495,11.16-13.562,18.608-23.36,18.608h-5.006"/>
<path fill="none" stroke="#E20613" stroke-width="21.2599" stroke-linecap="round" stroke-linejoin="round" stroke-miterlimit="10" d="
	M132.262,108.531c3.915,4.578,6.399,10.919,6.399,18.419c0,3.007-0.459,5.854-1.285,8.495"/>
<path fill="none" stroke="#E20613" stroke-width="21.2599" stroke-linecap="round" stroke-linejoin="round" stroke-miterlimit="10" d="
	M95.51,100.621h20.14c6.331,0,12.329,2.899,16.613,7.909"/>
<path fill="none" stroke="#E20613" stroke-width="21.2599" stroke-linecap="round" stroke-linejoin="round" stroke-miterlimit="10" d="
	M79.545,108.654v-8.032H95.51"/>
<path fill="none" stroke="#E20613" stroke-width="21.2599" stroke-linecap="round" stroke-linejoin="round" stroke-miterlimit="10" d="
	M79.545,135.156v-26.5"/>
<path fill="none" stroke="#E20613" stroke-width="21.2599" stroke-linecap="round" stroke-linejoin="round" stroke-miterlimit="10" d="
	M79.545,176.156v-41"/>
<path fill="none" stroke="#E20613" stroke-width="21.2599" stroke-linecap="round" stroke-linejoin="round" stroke-miterlimit="10" d="
	M79.545,196.156v-20"/>
<path fill="none" stroke="#E20613" stroke-width="21.2599" stroke-linecap="round" stroke-linejoin="round" stroke-miterlimit="10" d="
	M88.51,212.188h-8.966v-16.032"/>
<path fill="none" stroke="#E20613" stroke-width="21.2599" stroke-linecap="round" stroke-linejoin="round" stroke-miterlimit="10" d="
	M130.954,207.338c-3.978,3.085-8.579,4.85-13.123,4.85H88.51"/>
<path fill="none" stroke="#E20613" stroke-width="21.2599" stroke-linecap="round" stroke-linejoin="round" stroke-miterlimit="10" d="
	M142.477,182.952c0,10.43-4.896,19.242-11.523,24.386"/>
<path fill="none" stroke="#E20613" stroke-width="21.2599" stroke-linecap="round" stroke-linejoin="round" stroke-miterlimit="10" d="
	M134.106,163.069c4.922,5.114,8.371,12.045,8.371,19.885"/>
<path fill="none" stroke="#E20613" stroke-width="21.2599" stroke-linecap="round" stroke-linejoin="round" stroke-miterlimit="10" d="
	M115.081,153.985c6.359,0,13.59,3.436,19.025,9.084"/>
</svg>
