<?xml version="1.0" encoding="utf-8"?>
<!-- Generator: Adobe Illustrator 16.0.0, SVG Export Plug-In . SVG Version: 6.00 Build 0)  -->
<!DOCTYPE svg PUBLIC "-//W3C//DTD SVG 1.1//EN" "http://www.w3.org/Graphics/SVG/1.1/DTD/svg11.dtd">
<svg version="1.1" id="Layer_1" xmlns="http://www.w3.org/2000/svg" xmlns:xlink="http://www.w3.org/1999/xlink" x="0px" y="0px"
	 width="222.021px" height="312.809px" viewBox="0 0 222.021 312.809" enable-background="new 0 0 222.021 312.809"
	 xml:space="preserve">
<path fill="none" stroke="#E20613" stroke-width="21.2599" stroke-linecap="round" stroke-linejoin="round" stroke-miterlimit="10" d="
	M138.26,157.985h-19.532"/>
<path fill="none" stroke="#E20613" stroke-width="21.2599" stroke-linecap="round" stroke-linejoin="round" stroke-miterlimit="10" d="
	M145.317,191.156v-33.171h-7.058"/>
<path fill="none" stroke="#E20613" stroke-width="21.2599" stroke-linecap="round" stroke-linejoin="round" stroke-miterlimit="10" d="
	M130.13,212.137c9.372-2.422,15.188-5.988,15.188-5.988v-14.994"/>
<path fill="none" stroke="#E20613" stroke-width="21.2599" stroke-linecap="round" stroke-linejoin="round" stroke-miterlimit="10" d="
	M92.277,208.598c5.634,3.625,12.665,5.729,20.872,5.729c6.396,0,12.159-0.943,16.979-2.189"/>
<path fill="none" stroke="#E20613" stroke-width="21.2599" stroke-linecap="round" stroke-linejoin="round" stroke-miterlimit="10" d="
	M78.635,190.699c2.431,7.414,7.093,13.685,13.643,17.897"/>
<path fill="none" stroke="#E20613" stroke-width="21.2599" stroke-linecap="round" stroke-linejoin="round" stroke-miterlimit="10" d="
	M76.704,158.406v19.85c0,4.374,0.66,8.565,1.933,12.445"/>
<path fill="none" stroke="#E20613" stroke-width="21.2599" stroke-linecap="round" stroke-linejoin="round" stroke-miterlimit="10" d="
	M89.533,106.183c-8.253,6.604-12.83,16.857-12.83,28.372v23.851"/>
<path fill="none" stroke="#E20613" stroke-width="21.2599" stroke-linecap="round" stroke-linejoin="round" stroke-miterlimit="10" d="
	M119.84,99.007c-2.444-0.336-4.747-0.525-6.689-0.524c-9.601,0-17.588,2.877-23.616,7.701"/>
<path fill="none" stroke="#E20613" stroke-width="21.2599" stroke-linecap="round" stroke-linejoin="round" stroke-miterlimit="10" d="
	M139.915,104.801c-4.108-2.461-12.738-4.787-20.075-5.794"/>
</svg>
