<?xml version="1.0" encoding="utf-8"?>
<!-- Generator: Adobe Illustrator 16.0.0, SVG Export Plug-In . SVG Version: 6.00 Build 0)  -->
<!DOCTYPE svg PUBLIC "-//W3C//DTD SVG 1.1//EN" "http://www.w3.org/Graphics/SVG/1.1/DTD/svg11.dtd">
<svg version="1.1" id="Layer_1" xmlns="http://www.w3.org/2000/svg" xmlns:xlink="http://www.w3.org/1999/xlink" x="0px" y="0px"
	 width="222.021px" height="312.809px" viewBox="0 0 222.021 312.809" enable-background="new 0 0 222.021 312.809"
	 xml:space="preserve">
<line fill="none" stroke="#E20613" stroke-width="21.2599" stroke-linecap="round" stroke-linejoin="round" stroke-miterlimit="10" x1="138.042" y1="216.935" x2="155.786" y2="221.926"/>
<line fill="none" stroke="#E20613" stroke-width="21.2599" stroke-linecap="round" stroke-linejoin="round" stroke-miterlimit="10" x1="108.878" y1="208.732" x2="138.042" y2="216.935"/>
<line fill="none" stroke="#E20613" stroke-width="21.2599" stroke-linecap="round" stroke-linejoin="round" stroke-miterlimit="10" x1="101.711" y1="206.715" x2="108.878" y2="208.732"/>
<path fill="none" stroke="#E20613" stroke-width="21.2599" stroke-linecap="round" stroke-linejoin="round" stroke-miterlimit="10" d="
	M120.841,202.567c7.638-3.958,13.11-10.477,15.98-18.392"/>
<path fill="none" stroke="#E20613" stroke-width="21.2599" stroke-linecap="round" stroke-linejoin="round" stroke-miterlimit="10" d="
	M76.717,196.951c6.234,6.061,15.061,9.772,25.966,9.772c6.938,0,13.034-1.504,18.158-4.158"/>
<path fill="none" stroke="#E20613" stroke-width="21.2599" stroke-linecap="round" stroke-linejoin="round" stroke-miterlimit="10" d="
	M66.236,153.906v16.747c0,10.371,3.713,19.72,10.479,26.3"/>
<path fill="none" stroke="#E20613" stroke-width="21.2599" stroke-linecap="round" stroke-linejoin="round" stroke-miterlimit="10" d="
	M70.79,108.455c-2.975,5.409-4.554,11.736-4.554,18.5v26.948"/>
<path fill="none" stroke="#E20613" stroke-width="21.2599" stroke-linecap="round" stroke-linejoin="round" stroke-miterlimit="10" d="
	M96.459,91.308c-11.873,1.67-20.71,8.132-25.668,17.147"/>
<path fill="none" stroke="#E20613" stroke-width="21.2599" stroke-linecap="round" stroke-linejoin="round" stroke-miterlimit="10" d="
	M134.901,109.07c-5.694-10.864-16.91-18.187-32.22-18.187c-2.157,0-4.232,0.146-6.224,0.425"/>
<path fill="none" stroke="#E20613" stroke-width="21.2599" stroke-linecap="round" stroke-linejoin="round" stroke-miterlimit="10" d="
	M139.126,150.656v-23.699c0-6.509-1.463-12.614-4.225-17.887"/>
<path fill="none" stroke="#E20613" stroke-width="21.2599" stroke-linecap="round" stroke-linejoin="round" stroke-miterlimit="10" d="
	M136.821,184.175c1.515-4.176,2.305-8.74,2.305-13.522v-19.997"/>
</svg>
