<?xml version="1.0" encoding="utf-8"?>
<!-- Generator: Adobe Illustrator 16.0.0, SVG Export Plug-In . SVG Version: 6.00 Build 0)  -->
<!DOCTYPE svg PUBLIC "-//W3C//DTD SVG 1.1//EN" "http://www.w3.org/Graphics/SVG/1.1/DTD/svg11.dtd">
<svg version="1.1" id="Layer_1" xmlns="http://www.w3.org/2000/svg" xmlns:xlink="http://www.w3.org/1999/xlink" x="0px" y="0px"
	 width="222.021px" height="312.809px" viewBox="0 0 222.021 312.809" enable-background="new 0 0 222.021 312.809"
	 xml:space="preserve">
<path fill="none" stroke="#E20613" stroke-width="21.2599" stroke-linecap="round" stroke-linejoin="round" stroke-miterlimit="10" d="
	M103.302,213.459c-6.689-0.73-15.522-2.318-21.764-5.211"/>
<path fill="none" stroke="#E20613" stroke-width="21.2599" stroke-linecap="round" stroke-linejoin="round" stroke-miterlimit="10" d="
	M139.988,178.086c0.857,2.656,1.348,5.592,1.345,8.834c-0.02,24.283-25.457,27.047-30.319,27.047c-1.694,0-4.447-0.152-7.71-0.508"
	/>
<path fill="none" stroke="#E20613" stroke-width="21.2599" stroke-linecap="round" stroke-linejoin="round" stroke-miterlimit="10" d="
	M93.194,146.289c7.806,5.431,16.6,7.759,17.819,8.215c2.453,0.917,23.422,6.386,28.976,23.582"/>
<path fill="none" stroke="#E20613" stroke-width="21.2599" stroke-linecap="round" stroke-linejoin="round" stroke-miterlimit="10" d="
	M97.685,101.422c-9.099,3.409-16.996,10.575-16.996,23.67c0,9.784,5.897,16.602,12.504,21.197"/>
<path fill="none" stroke="#E20613" stroke-width="21.2599" stroke-linecap="round" stroke-linejoin="round" stroke-miterlimit="10" d="
	M131.673,101.555c-5.229-1.312-12.418-2.713-19.318-2.713c-4.544,0-9.78,0.748-14.668,2.58"/>
<path fill="none" stroke="#E20613" stroke-width="21.2599" stroke-linecap="round" stroke-linejoin="round" stroke-miterlimit="10" d="
	M139.384,103.811c0,0-3.089-1.094-7.711-2.255"/>
</svg>
