<?xml version="1.0" encoding="utf-8"?>
<!-- Generator: Adobe Illustrator 16.0.0, SVG Export Plug-In . SVG Version: 6.00 Build 0)  -->
<!DOCTYPE svg PUBLIC "-//W3C//DTD SVG 1.1//EN" "http://www.w3.org/Graphics/SVG/1.1/DTD/svg11.dtd">
<svg version="1.1" id="Layer_1" xmlns="http://www.w3.org/2000/svg" xmlns:xlink="http://www.w3.org/1999/xlink" x="0px" y="0px"
	 width="222.021px" height="312.809px" viewBox="0 0 222.021 312.809" enable-background="new 0 0 222.021 312.809"
	 xml:space="preserve">
<path fill="none" stroke="#DF1E26" stroke-width="9" stroke-linecap="round" stroke-linejoin="round" stroke-miterlimit="10" d="
	M128.346,160.76c4.523-3.523,7.912-8.85,10.189-16.057"/>
<path fill="none" stroke="#DF1E26" stroke-width="9" stroke-linecap="round" stroke-linejoin="round" stroke-miterlimit="10" d="
	M96.886,161.798c3.894,2.591,8.71,4.208,14.464,4.208c6.816,0,12.474-1.723,16.996-5.246"/>
<path fill="none" stroke="#DF1E26" stroke-width="9" stroke-linecap="round" stroke-linejoin="round" stroke-miterlimit="10" d="
	M111.283,103.872c-28.139,0-26.861,28.452-26.861,24.749v9.376c0,8.191,4.108,18.24,12.465,23.801"/>
<path fill="none" stroke="#DF1E26" stroke-width="9" stroke-linecap="round" stroke-linejoin="round" stroke-miterlimit="10" d="
	M138.535,154.904V133.25c0-16.581-5.204-29.378-27.252-29.378"/>
<path fill="none" stroke="#DF1E26" stroke-width="9" stroke-linecap="round" stroke-linejoin="round" stroke-miterlimit="10" d="
	M130.483,198.921c5.49-5.95,8.052-14.892,8.052-26.627v-17.39"/>
<path fill="none" stroke="#DF1E26" stroke-width="9" stroke-linecap="round" stroke-linejoin="round" stroke-miterlimit="10" d="
	M87.429,205.229c5.37,1.854,12.358,2.357,18.426,2.383c11.197,0.048,19.295-2.909,24.628-8.69"/>
</svg>
