<?xml version="1.0" encoding="utf-8"?>
<!-- Generator: Adobe Illustrator 16.0.0, SVG Export Plug-In . SVG Version: 6.00 Build 0)  -->
<!DOCTYPE svg PUBLIC "-//W3C//DTD SVG 1.1//EN" "http://www.w3.org/Graphics/SVG/1.1/DTD/svg11.dtd">
<svg version="1.1" id="Layer_1" xmlns="http://www.w3.org/2000/svg" xmlns:xlink="http://www.w3.org/1999/xlink" x="0px" y="0px"
	 width="222.021px" height="312.809px" viewBox="0 0 222.021 312.809" enable-background="new 0 0 222.021 312.809"
	 xml:space="preserve">
<path fill="none" stroke="#DF1E26" stroke-width="9" stroke-linecap="round" stroke-linejoin="round" stroke-miterlimit="10" d="
	M106.511,154.018H78.843"/>
<path fill="none" stroke="#DF1E26" stroke-width="9" stroke-linecap="round" stroke-linejoin="round" stroke-miterlimit="10" d="
	M122.545,153.014c-2.018,0.657-4.096,1.004-6.161,1.004h-9.873"/>
<path fill="none" stroke="#DF1E26" stroke-width="9" stroke-linecap="round" stroke-linejoin="round" stroke-miterlimit="10" d="
	M132.929,111.551c3.966,4.25,6.515,10.305,6.515,17.529c0,11.823-7.842,20.987-16.899,23.934"/>
<path fill="none" stroke="#DF1E26" stroke-width="9" stroke-linecap="round" stroke-linejoin="round" stroke-miterlimit="10" d="
	M117.913,104.858c5.668,0,11.051,2.444,15.017,6.693"/>
<path fill="none" stroke="#DF1E26" stroke-width="9" stroke-linecap="round" stroke-linejoin="round" stroke-miterlimit="10" d="
	M78.843,104.858h39.07"/>
<path fill="none" stroke="#DF1E26" stroke-width="9" stroke-linecap="round" stroke-linejoin="round" stroke-miterlimit="10" d="
	M78.843,129.904v-25.046"/>
<path fill="none" stroke="#DF1E26" stroke-width="9" stroke-linecap="round" stroke-linejoin="round" stroke-miterlimit="10" d="
	M78.843,154.018v-24.113"/>
<path fill="none" stroke="#DF1E26" stroke-width="9" stroke-linecap="round" stroke-linejoin="round" stroke-miterlimit="10" d="
	M78.843,178.904v-24.887"/>
<path fill="none" stroke="#DF1E26" stroke-width="9" stroke-linecap="round" stroke-linejoin="round" stroke-miterlimit="10" d="
	M106.51,207.499H78.843v-28.595"/>
<path fill="none" stroke="#DF1E26" stroke-width="9" stroke-linecap="round" stroke-linejoin="round" stroke-miterlimit="10" d="
	M137.18,198.066c-4.462,5.841-10.905,9.433-17.229,9.433H106.51"/>
<path fill="none" stroke="#DF1E26" stroke-width="9" stroke-linecap="round" stroke-linejoin="round" stroke-miterlimit="10" d="
	M139.909,168.674c1.934,3.552,3.102,7.588,3.102,11.928c0,6.789-2.292,12.834-5.83,17.465"/>
<path fill="none" stroke="#DF1E26" stroke-width="9" stroke-linecap="round" stroke-linejoin="round" stroke-miterlimit="10" d="
	M117.383,153.953c8.095,0,17.697,5.849,22.526,14.721"/>
</svg>
