<?xml version="1.0" encoding="utf-8"?>
<!-- Generator: Adobe Illustrator 16.0.0, SVG Export Plug-In . SVG Version: 6.00 Build 0)  -->
<!DOCTYPE svg PUBLIC "-//W3C//DTD SVG 1.1//EN" "http://www.w3.org/Graphics/SVG/1.1/DTD/svg11.dtd">
<svg version="1.1" id="Layer_1" xmlns="http://www.w3.org/2000/svg" xmlns:xlink="http://www.w3.org/1999/xlink" x="0px" y="0px"
	 width="222.021px" height="312.809px" viewBox="0 0 222.021 312.809" enable-background="new 0 0 222.021 312.809"
	 xml:space="preserve">
<path fill="none" stroke="#DF1E26" stroke-width="9" stroke-linecap="round" stroke-linejoin="round" stroke-miterlimit="10" d="
	M137.51,157.918h-18.231"/>
<path fill="none" stroke="#DF1E26" stroke-width="9" stroke-linecap="round" stroke-linejoin="round" stroke-miterlimit="10" d="
	M146.598,178.904v-20.986h-9.088"/>
<path fill="none" stroke="#DF1E26" stroke-width="9" stroke-linecap="round" stroke-linejoin="round" stroke-miterlimit="10" d="
	M137.329,205.291c5.844-2.1,9.27-4.2,9.27-4.2v-22.187"/>
<path fill="none" stroke="#DF1E26" stroke-width="9" stroke-linecap="round" stroke-linejoin="round" stroke-miterlimit="10" d="
	M85.441,197.969c6.453,7.098,16.042,11.521,28.107,11.521c9.675,0,17.937-2.1,23.78-4.199"/>
<path fill="none" stroke="#DF1E26" stroke-width="9" stroke-linecap="round" stroke-linejoin="round" stroke-miterlimit="10" d="
	M76.104,156.904v15.523c0,9.9,3.293,18.894,9.337,25.541"/>
<path fill="none" stroke="#DF1E26" stroke-width="9" stroke-linecap="round" stroke-linejoin="round" stroke-miterlimit="10" d="
	M78.669,124.681c-1.685,4.434-2.565,9.309-2.565,14.426v17.797"/>
<path fill="none" stroke="#DF1E26" stroke-width="9" stroke-linecap="round" stroke-linejoin="round" stroke-miterlimit="10" d="
	M113.549,102.045c-17.524,0-29.825,9.333-34.879,22.636"/>
<path fill="none" stroke="#DF1E26" stroke-width="9" stroke-linecap="round" stroke-linejoin="round" stroke-miterlimit="10" d="
	M141.046,108.537c-5.63-3.371-19.514-6.496-27.497-6.492"/>
</svg>
