<?xml version="1.0" encoding="utf-8"?>
<!-- Generator: Adobe Illustrator 16.0.0, SVG Export Plug-In . SVG Version: 6.00 Build 0)  -->
<!DOCTYPE svg PUBLIC "-//W3C//DTD SVG 1.1//EN" "http://www.w3.org/Graphics/SVG/1.1/DTD/svg11.dtd">
<svg version="1.1" id="Layer_1" xmlns="http://www.w3.org/2000/svg" xmlns:xlink="http://www.w3.org/1999/xlink" x="0px" y="0px"
	 width="222.021px" height="312.809px" viewBox="0 0 222.021 312.809" enable-background="new 0 0 222.021 312.809"
	 xml:space="preserve">
<path fill="none" stroke="#DF1E26" stroke-width="9" stroke-linecap="round" stroke-linejoin="round" stroke-miterlimit="10" d="
	M128.288,204.513c10.24-5.474,16.04-16.144,16.04-28.411v-26.197"/>
<path fill="none" stroke="#DF1E26" stroke-width="9" stroke-linecap="round" stroke-linejoin="round" stroke-miterlimit="10" d="
	M79.022,164.904v11.197c0,17.851,12.277,32.318,32.651,32.318c6.373,0,11.953-1.416,16.614-3.907"/>
<path fill="none" stroke="#DF1E26" stroke-width="9" stroke-linecap="round" stroke-linejoin="round" stroke-miterlimit="10" d="
	M88.196,113.598c-5.926,5.884-9.174,14.171-9.174,23.352v27.955"/>
<path fill="none" stroke="#DF1E26" stroke-width="9" stroke-linecap="round" stroke-linejoin="round" stroke-miterlimit="10" d="
	M99.732,106.513c-4.536,1.545-8.409,3.98-11.536,7.085"/>
<path fill="none" stroke="#DF1E26" stroke-width="9" stroke-linecap="round" stroke-linejoin="round" stroke-miterlimit="10" d="
	M126.13,107.488c-4.194-1.837-9.039-2.859-14.456-2.859c-4.366,0-8.36,0.664-11.942,1.884"/>
<path fill="none" stroke="#DF1E26" stroke-width="9" stroke-linecap="round" stroke-linejoin="round" stroke-miterlimit="10" d="
	M144.328,149.904v-12.955c0-13.105-6.618-24.388-18.198-29.461"/>
</svg>
