<?xml version="1.0" encoding="utf-8"?>
<!-- Generator: Adobe Illustrator 16.0.0, SVG Export Plug-In . SVG Version: 6.00 Build 0)  -->
<!DOCTYPE svg PUBLIC "-//W3C//DTD SVG 1.1//EN" "http://www.w3.org/Graphics/SVG/1.1/DTD/svg11.dtd">
<svg version="1.1" id="Layer_1" xmlns="http://www.w3.org/2000/svg" xmlns:xlink="http://www.w3.org/1999/xlink" x="0px" y="0px"
	 width="222.021px" height="312.809px" viewBox="0 0 222.021 312.809" enable-background="new 0 0 222.021 312.809"
	 xml:space="preserve">
<line fill="none" stroke="#DF1E26" stroke-width="9" stroke-linecap="round" stroke-linejoin="round" stroke-miterlimit="10" x1="135.859" y1="210.677" x2="151.555" y2="215.092"/>
<line fill="none" stroke="#DF1E26" stroke-width="9" stroke-linecap="round" stroke-linejoin="round" stroke-miterlimit="10" x1="102.783" y1="201.373" x2="135.859" y2="210.677"/>
<path fill="none" stroke="#DF1E26" stroke-width="9" stroke-linecap="round" stroke-linejoin="round" stroke-miterlimit="10" d="
	M79.529,191.854c5.654,5.888,13.872,9.528,24.129,9.528c15.043,0,25.703-7.837,30.317-19.105"/>
<path fill="none" stroke="#DF1E26" stroke-width="9" stroke-linecap="round" stroke-linejoin="round" stroke-miterlimit="10" d="
	M74.116,114.255c-2.181,4.531-3.331,9.696-3.331,15.178v39.415c0,8.985,3.09,17.119,8.744,23.007"/>
<path fill="none" stroke="#DF1E26" stroke-width="9" stroke-linecap="round" stroke-linejoin="round" stroke-miterlimit="10" d="
	M122.168,101.864c-5.028-3.147-11.26-4.968-18.51-4.967c-14.257,0-24.574,7.035-29.542,17.358"/>
<path fill="none" stroke="#DF1E26" stroke-width="9" stroke-linecap="round" stroke-linejoin="round" stroke-miterlimit="10" d="
	M133.975,182.277c1.676-4.094,2.554-8.641,2.554-13.43v-39.415c0-11.618-5.167-21.813-14.361-27.569"/>
</svg>
