<?xml version="1.0" encoding="utf-8"?>
<!-- Generator: Adobe Illustrator 16.0.0, SVG Export Plug-In . SVG Version: 6.00 Build 0)  -->
<!DOCTYPE svg PUBLIC "-//W3C//DTD SVG 1.1//EN" "http://www.w3.org/Graphics/SVG/1.1/DTD/svg11.dtd">
<svg version="1.1" id="Segments" xmlns="http://www.w3.org/2000/svg" xmlns:xlink="http://www.w3.org/1999/xlink" x="0px" y="0px"
	 width="425.5px" height="451.1px" viewBox="0 0 425.5 451.1" enable-background="new 0 0 425.5 451.1" xml:space="preserve">
<line fill="none" stroke="#DDB99F" stroke-linecap="round" stroke-linejoin="round" stroke-miterlimit="10" x1="6" y1="82.773" x2="6" y2="114.706"/>
<line fill="none" stroke="#DDB99F" stroke-linecap="round" stroke-linejoin="round" stroke-miterlimit="10" x1="6" y1="31.773" x2="6" y2="82.773"/>
<line fill="none" stroke="#DDB99F" stroke-linecap="round" stroke-linejoin="round" stroke-miterlimit="10" x1="6" y1="3.139" x2="6" y2="31.773"/>
<line fill="none" stroke="#DDB99F" stroke-linecap="round" stroke-linejoin="round" stroke-miterlimit="10" x1="74.055" y1="101.523" x2="74.055" y2="114.706"/>
<line fill="none" stroke="#DDB99F" stroke-linecap="round" stroke-linejoin="round" stroke-miterlimit="10" x1="74.055" y1="27.773" x2="74.055" y2="101.523"/>
<line fill="none" stroke="#DDB99F" stroke-linecap="round" stroke-linejoin="round" stroke-miterlimit="10" x1="74.055" y1="3.139" x2="74.055" y2="27.773"/>
<line fill="none" stroke="#DDB99F" stroke-linecap="round" stroke-linejoin="round" stroke-miterlimit="10" x1="39.435" y1="56.596" x2="6" y2="56.596"/>
<line fill="none" stroke="#DDB99F" stroke-linecap="round" stroke-linejoin="round" stroke-miterlimit="10" x1="74.055" y1="56.596" x2="39.435" y2="56.596"/>
<line fill="none" stroke="#DDB99F" stroke-linecap="round" stroke-linejoin="round" stroke-miterlimit="10" x1="123.174" y1="100.164" x2="117.73" y2="115.062"/>
<line fill="none" stroke="#DDB99F" stroke-linecap="round" stroke-linejoin="round" stroke-miterlimit="10" x1="136.527" y1="63.626" x2="123.174" y2="100.164"/>
<line fill="none" stroke="#DDB99F" stroke-linecap="round" stroke-linejoin="round" stroke-miterlimit="10" x1="151.631" y1="22.298" x2="136.527" y2="63.626"/>
<polyline fill="none" stroke="#DDB99F" stroke-linecap="round" stroke-linejoin="round" stroke-miterlimit="10" points="
	169.845,32.835 158.763,2.783 151.631,22.298 "/>
<line fill="none" stroke="#DDB99F" stroke-linecap="round" stroke-linejoin="round" stroke-miterlimit="10" x1="192.972" y1="95.549" x2="169.845" y2="32.835"/>
<line fill="none" stroke="#DDB99F" stroke-linecap="round" stroke-linejoin="round" stroke-miterlimit="10" x1="200.167" y1="115.062" x2="192.972" y2="95.549"/>
<line fill="none" stroke="#DDB99F" stroke-linecap="round" stroke-linejoin="round" stroke-miterlimit="10" x1="149.352" y1="81.98" x2="129.82" y2="81.98"/>
<line fill="none" stroke="#DDB99F" stroke-linecap="round" stroke-linejoin="round" stroke-miterlimit="10" x1="187.968" y1="81.98" x2="149.352" y2="81.98"/>
<path fill="none" stroke="#DDB99F" stroke-linecap="round" stroke-linejoin="round" stroke-miterlimit="10" d="M296.098,114.364
	c3.422-1.052,6.535-2.348,8.808-3.709"/>
<path fill="none" stroke="#DDB99F" stroke-linecap="round" stroke-linejoin="round" stroke-miterlimit="10" d="M258.396,109.711
	c5.938,4.481,13.668,7.134,22.885,7.134c4.551-0.001,9.99-0.997,14.816-2.479"/>
<path fill="none" stroke="#DDB99F" stroke-linecap="round" stroke-linejoin="round" stroke-miterlimit="10" d="M244.835,62.107
	v18.665c0,11.849,4.849,22.363,13.562,28.938"/>
<path fill="none" stroke="#DDB99F" stroke-linecap="round" stroke-linejoin="round" stroke-miterlimit="10" d="M259.756,7.161
	c-9.566,6.482-14.921,17.459-14.921,29.912v25.034"/>
<path fill="none" stroke="#DDB99F" stroke-linecap="round" stroke-linejoin="round" stroke-miterlimit="10" d="M295.225,3.215
	C290.62,1.877,285.557,0.998,281.281,1c-8.526,0-15.783,2.271-21.523,6.16"/>
<path fill="none" stroke="#DDB99F" stroke-linecap="round" stroke-linejoin="round" stroke-miterlimit="10" d="M304.904,7.184
	c-2.465-1.476-5.918-2.875-9.68-3.969"/>
<line fill="none" stroke="#DDB99F" stroke-linecap="round" stroke-linejoin="round" stroke-miterlimit="10" x1="355.864" y1="32.44" x2="355.864" y2="3.137"/>
<line fill="none" stroke="#DDB99F" stroke-linecap="round" stroke-linejoin="round" stroke-miterlimit="10" x1="355.864" y1="84.773" x2="355.864" y2="32.44"/>
<line fill="none" stroke="#DDB99F" stroke-linecap="round" stroke-linejoin="round" stroke-miterlimit="10" x1="355.864" y1="114.704" x2="355.864" y2="84.773"/>
<line fill="none" stroke="#DDB99F" stroke-linecap="round" stroke-linejoin="round" stroke-miterlimit="10" x1="389.34" y1="31.457" x2="415.364" y2="3.137"/>
<polyline fill="none" stroke="#DDB99F" stroke-linecap="round" stroke-linejoin="round" stroke-miterlimit="10" points="
	389.862,83.988 365.782,57.094 389.34,31.457 "/>
<line fill="none" stroke="#DDB99F" stroke-linecap="round" stroke-linejoin="round" stroke-miterlimit="10" x1="417.37" y1="114.708" x2="389.862" y2="83.988"/>
<line fill="none" stroke="#DDB99F" stroke-linecap="round" stroke-linejoin="round" stroke-miterlimit="10" x1="323.685" y1="278.767" x2="336.68" y2="278.767"/>
<polyline fill="none" stroke="#DDB99F" stroke-linecap="round" stroke-linejoin="round" stroke-miterlimit="10" points="
	280.325,264.272 280.325,278.767 323.685,278.767 "/>
<line fill="none" stroke="#DDB99F" stroke-linecap="round" stroke-linejoin="round" stroke-miterlimit="10" x1="280.325" y1="200.773" x2="280.325" y2="264.272"/>
<polyline fill="none" stroke="#DDB99F" stroke-linecap="round" stroke-linejoin="round" stroke-miterlimit="10" points="
	296.186,167.201 280.325,167.201 280.325,200.773 "/>
<line fill="none" stroke="#DDB99F" stroke-linecap="round" stroke-linejoin="round" stroke-miterlimit="10" x1="335.442" y1="167.201" x2="296.186" y2="167.201"/>
<line fill="none" stroke="#DDB99F" stroke-linecap="round" stroke-linejoin="round" stroke-miterlimit="10" x1="307.185" y1="220.658" x2="280.325" y2="220.658"/>
<line fill="none" stroke="#DDB99F" stroke-linecap="round" stroke-linejoin="round" stroke-miterlimit="10" x1="333.051" y1="220.658" x2="307.185" y2="220.658"/>
<line fill="none" stroke="#DDB99F" stroke-linecap="round" stroke-linejoin="round" stroke-miterlimit="10" x1="162" y1="262.772" x2="162" y2="278.767"/>
<line fill="none" stroke="#DDB99F" stroke-linecap="round" stroke-linejoin="round" stroke-miterlimit="10" x1="162" y1="190.773" x2="162" y2="262.772"/>
<line fill="none" stroke="#DDB99F" stroke-linecap="round" stroke-linejoin="round" stroke-miterlimit="10" x1="162" y1="167.201" x2="162" y2="190.773"/>
<line fill="none" stroke="#DDB99F" stroke-linecap="round" stroke-linejoin="round" stroke-miterlimit="10" x1="230.055" y1="192.773" x2="230.055" y2="278.767"/>
<line fill="none" stroke="#DDB99F" stroke-linecap="round" stroke-linejoin="round" stroke-miterlimit="10" x1="230.055" y1="167.201" x2="230.055" y2="192.773"/>
<line fill="none" stroke="#DDB99F" stroke-linecap="round" stroke-linejoin="round" stroke-miterlimit="10" x1="192.185" y1="220.658" x2="162" y2="220.658"/>
<line fill="none" stroke="#DDB99F" stroke-linecap="round" stroke-linejoin="round" stroke-miterlimit="10" x1="230.055" y1="220.658" x2="192.185" y2="220.658"/>
<line fill="none" stroke="#DDB99F" stroke-linecap="round" stroke-linejoin="round" stroke-miterlimit="10" x1="32.185" y1="390.829" x2="6" y2="390.829"/>
<path fill="none" stroke="#DDB99F" stroke-linecap="round" stroke-linejoin="round" stroke-miterlimit="10" d="M62.2,376.28
	c-4.411,8.869-13.173,14.549-21.729,14.549h-8.286"/>
<path fill="none" stroke="#DDB99F" stroke-linecap="round" stroke-linejoin="round" stroke-miterlimit="10" d="M31.685,337.396
	h10.421c12.117,0,23.014,10.623,23.014,26.328c0,4.617-1.083,8.863-2.92,12.558"/>
<polyline fill="none" stroke="#DDB99F" stroke-linecap="round" stroke-linejoin="round" stroke-miterlimit="10" points="6,376.272 
	6,337.396 31.685,337.396 "/>
<line fill="none" stroke="#DDB99F" stroke-linecap="round" stroke-linejoin="round" stroke-miterlimit="10" x1="6" y1="448.96" x2="6" y2="376.272"/>
<path fill="none" stroke="#DDB99F" stroke-linecap="round" stroke-linejoin="round" stroke-miterlimit="10" d="M66.816,409.281
	c1.34,3.213,2.116,6.728,2.116,10.444c0,16.688-12.529,29.234-24.646,29.234H6.001"/>
<path fill="none" stroke="#DDB99F" stroke-linecap="round" stroke-linejoin="round" stroke-miterlimit="10" d="M41.538,390.758
	c9.387,0,20.67,7.479,25.278,18.521"/>
<line fill="none" stroke="#DDB99F" stroke-linecap="round" stroke-linejoin="round" stroke-miterlimit="10" x1="234.227" y1="405.774" x2="234.227" y2="337.396"/>
<polyline fill="none" stroke="#DDB99F" stroke-linecap="round" stroke-linejoin="round" stroke-miterlimit="10" points="
	253.352,448.96 234.227,448.96 234.227,405.774 "/>
<path fill="none" stroke="#DDB99F" stroke-linecap="round" stroke-linejoin="round" stroke-miterlimit="10" d="M302.28,412.888
	c0,19.925-13.703,36.072-36.444,36.072h-12.482"/>
<path fill="none" stroke="#DDB99F" stroke-linecap="round" stroke-linejoin="round" stroke-miterlimit="10" d="M302.28,373.469
	v39.419"/>
<path fill="none" stroke="#DDB99F" stroke-linecap="round" stroke-linejoin="round" stroke-miterlimit="10" d="M297.412,354.409
	c3.179,5.529,4.868,12.062,4.868,19.062"/>
<path fill="none" stroke="#DDB99F" stroke-linecap="round" stroke-linejoin="round" stroke-miterlimit="10" d="M280.414,339.949
	c7.495,2.866,13.271,7.976,16.998,14.46"/>
<path fill="none" stroke="#DDB99F" stroke-linecap="round" stroke-linejoin="round" stroke-miterlimit="10" d="M234.227,337.396
	h31.607c5.389,0,10.268,0.905,14.577,2.555"/>
<path fill="none" stroke="#DDB99F" stroke-linecap="round" stroke-linejoin="round" stroke-miterlimit="10" d="M149.61,335.256
	c-11.37,0-20.48,4.036-26.75,10.563"/>
<path fill="none" stroke="#DDB99F" stroke-linecap="round" stroke-linejoin="round" stroke-miterlimit="10" d="M186.055,390.44
	v-19.111c0-19.924-13.705-36.071-36.445-36.071"/>
<path fill="none" stroke="#DDB99F" stroke-linecap="round" stroke-linejoin="round" stroke-miterlimit="10" d="M149.61,451.1
	c22.74,0,36.445-16.146,36.445-36.071V390.44"/>
<path fill="none" stroke="#DDB99F" stroke-linecap="round" stroke-linejoin="round" stroke-miterlimit="10" d="M121.013,438.44
	c6.262,7.747,16.055,12.658,28.597,12.658"/>
<path fill="none" stroke="#DDB99F" stroke-linecap="round" stroke-linejoin="round" stroke-miterlimit="10" d="M113.164,402.106
	v12.922c0,8.937,2.758,17.109,7.85,23.412"/>
<path fill="none" stroke="#DDB99F" stroke-linecap="round" stroke-linejoin="round" stroke-miterlimit="10" d="M122.86,345.822
	c-6.269,6.526-9.694,15.545-9.694,25.507v30.777"/>
<line fill="none" stroke="#DDB99F" stroke-linecap="round" stroke-linejoin="round" stroke-miterlimit="10" x1="380.959" y1="431.441" x2="380.959" y2="448.963"/>
<line fill="none" stroke="#DDB99F" stroke-linecap="round" stroke-linejoin="round" stroke-miterlimit="10" x1="380.959" y1="398.54" x2="380.959" y2="431.441"/>
<line fill="none" stroke="#DDB99F" stroke-linecap="round" stroke-linejoin="round" stroke-miterlimit="10" x1="397.895" y1="370.097" x2="417.37" y2="337.394"/>
<polyline fill="none" stroke="#DDB99F" stroke-linecap="round" stroke-linejoin="round" stroke-miterlimit="10" points="
	363.734,369.617 380.959,398.54 397.895,370.097 "/>
<line fill="none" stroke="#DDB99F" stroke-linecap="round" stroke-linejoin="round" stroke-miterlimit="10" x1="344.542" y1="337.394" x2="363.734" y2="369.617"/>
<line fill="none" stroke="#DDB99F" stroke-linecap="round" stroke-linejoin="round" stroke-miterlimit="10" x1="88.02" y1="247.772" x2="88.02" y2="278.767"/>
<line fill="none" stroke="#DDB99F" stroke-linecap="round" stroke-linejoin="round" stroke-miterlimit="10" x1="88.02" y1="200.273" x2="88.02" y2="247.772"/>
<line fill="none" stroke="#DDB99F" stroke-linecap="round" stroke-linejoin="round" stroke-miterlimit="10" x1="88.02" y1="167.201" x2="88.02" y2="200.273"/>
<line fill="none" stroke="#DDB99F" stroke-linecap="round" stroke-linejoin="round" stroke-miterlimit="10" x1="68.685" y1="167.201" x2="54" y2="167.201"/>
<line fill="none" stroke="#DDB99F" stroke-linecap="round" stroke-linejoin="round" stroke-miterlimit="10" x1="122.032" y1="167.201" x2="68.685" y2="167.201"/>
</svg>
