<?xml version="1.0" encoding="utf-8"?>
<!-- Generator: Adobe Illustrator 16.0.0, SVG Export Plug-In . SVG Version: 6.00 Build 0)  -->
<!DOCTYPE svg PUBLIC "-//W3C//DTD SVG 1.1//EN" "http://www.w3.org/Graphics/SVG/1.1/DTD/svg11.dtd">
<svg version="1.1" id="Layer_1" xmlns="http://www.w3.org/2000/svg" xmlns:xlink="http://www.w3.org/1999/xlink" x="0px" y="0px"
	 width="600px" height="600px" viewBox="0 0 600 600" enable-background="new 0 0 600 600" xml:space="preserve">
<path fill="none" stroke="#F9BBB4" stroke-width="10" stroke-linecap="round" stroke-linejoin="round" stroke-miterlimit="10" d="
	M104.362,170.831v27.49"/>
<path fill="none" stroke="#F9BBB4" stroke-width="10" stroke-linecap="round" stroke-linejoin="round" stroke-miterlimit="10" d="
	M104.362,128.831v42"/>
<path fill="none" stroke="#F9BBB4" stroke-width="10" stroke-linecap="round" stroke-linejoin="round" stroke-miterlimit="10" d="
	M104.362,109.831v19"/>
<path fill="none" stroke="#F9BBB4" stroke-width="10" stroke-linecap="round" stroke-linejoin="round" stroke-miterlimit="10" d="
	M104.362,93.942v15.89"/>
<path fill="none" stroke="#F9BBB4" stroke-width="10" stroke-linecap="round" stroke-linejoin="round" stroke-miterlimit="10" d="
	M159.811,173.831v24.49"/>
<path fill="none" stroke="#F9BBB4" stroke-width="10" stroke-linecap="round" stroke-linejoin="round" stroke-miterlimit="10" d="
	M159.811,138.831v35"/>
<path fill="none" stroke="#F9BBB4" stroke-width="10" stroke-linecap="round" stroke-linejoin="round" stroke-miterlimit="10" d="
	M159.811,105.831v33"/>
<path fill="none" stroke="#F9BBB4" stroke-width="10" stroke-linecap="round" stroke-linejoin="round" stroke-miterlimit="10" d="
	M159.811,93.942v11.89"/>
<path fill="none" stroke="#F9BBB4" stroke-width="10" stroke-linecap="round" stroke-linejoin="round" stroke-miterlimit="10" d="
	M113.3,148.594h-8.938"/>
<path fill="none" stroke="#F9BBB4" stroke-width="10" stroke-linecap="round" stroke-linejoin="round" stroke-miterlimit="10" d="
	M141.3,148.594h-28"/>
<path fill="none" stroke="#F9BBB4" stroke-width="10" stroke-linecap="round" stroke-linejoin="round" stroke-miterlimit="10" d="
	M159.811,148.594H141.3"/>
<path fill="none" stroke="#F9BBB4" stroke-width="10" stroke-linecap="round" stroke-linejoin="round" stroke-miterlimit="10" d="
	M211.653,188.092l-3.479,9.479"/>
<path fill="none" stroke="#F9BBB4" stroke-width="10" stroke-linecap="round" stroke-linejoin="round" stroke-miterlimit="10" d="
	M230.978,135.476l-19.325,52.614"/>
<path fill="none" stroke="#F9BBB4" stroke-width="10" stroke-linecap="round" stroke-linejoin="round" stroke-miterlimit="10" d="
	M246.235,93.942l-15.257,41.534"/>
<path fill="none" stroke="#F9BBB4" stroke-width="10" stroke-linecap="round" stroke-linejoin="round" stroke-miterlimit="10" d="
	M254.962,117.475l-8.729-23.533"/>
<path fill="none" stroke="#F9BBB4" stroke-width="10" stroke-linecap="round" stroke-linejoin="round" stroke-miterlimit="10" d="
	M279.62,183.971l-24.658-66.496"/>
<path fill="none" stroke="#F9BBB4" stroke-width="10" stroke-linecap="round" stroke-linejoin="round" stroke-miterlimit="10" d="
	M284.663,197.572l-5.043-13.601"/>
<path fill="none" stroke="#F9BBB4" stroke-width="10" stroke-linecap="round" stroke-linejoin="round" stroke-miterlimit="10" d="
	M236.617,165.27h-16.351"/>
<path fill="none" stroke="#F9BBB4" stroke-width="10" stroke-linecap="round" stroke-linejoin="round" stroke-miterlimit="10" d="
	M272.783,165.27h-35.642"/>
<path fill="none" stroke="#F9BBB4" stroke-width="10" stroke-linecap="round" stroke-linejoin="round" stroke-miterlimit="10" d="
	M368.969,198.178c6.104-1.062,12.393-3.189,16.252-5.504"/>
<path fill="none" stroke="#F9BBB4" stroke-width="10" stroke-linecap="round" stroke-linejoin="round" stroke-miterlimit="10" d="
	M324.942,150.301v12.39c0,19.993,13.754,36.198,36.572,36.198c2.32-0.001,4.871-0.262,7.455-0.709"/>
<path fill="none" stroke="#F9BBB4" stroke-width="10" stroke-linecap="round" stroke-linejoin="round" stroke-miterlimit="10" d="
	M325.313,124.533c-0.246,1.828-0.371,3.701-0.371,5.608V150.3"/>
<path fill="none" stroke="#F9BBB4" stroke-width="10" stroke-linecap="round" stroke-linejoin="round" stroke-miterlimit="10" d="
	M336.549,102.739c-6.178,5.481-10.068,13.13-11.236,21.794"/>
<path fill="none" stroke="#F9BBB4" stroke-width="10" stroke-linecap="round" stroke-linejoin="round" stroke-miterlimit="10" d="
	M371.838,95.22c-3.535-0.798-7.146-1.28-10.324-1.278c-10.32,0-18.787,3.313-24.965,8.797"/>
<path fill="none" stroke="#F9BBB4" stroke-width="10" stroke-linecap="round" stroke-linejoin="round" stroke-miterlimit="10" d="
	M385.221,100.148c-3.26-1.952-8.24-3.771-13.383-4.928"/>
<path fill="none" stroke="#F9BBB4" stroke-width="10" stroke-linecap="round" stroke-linejoin="round" stroke-miterlimit="10" d="
	M434.675,108.712v-14.77"/>
<path fill="none" stroke="#F9BBB4" stroke-width="10" stroke-linecap="round" stroke-linejoin="round" stroke-miterlimit="10" d="
	M434.675,163.712v-55"/>
<path fill="none" stroke="#F9BBB4" stroke-width="10" stroke-linecap="round" stroke-linejoin="round" stroke-miterlimit="10" d="
	M434.675,187.712v-24"/>
<path fill="none" stroke="#F9BBB4" stroke-width="10" stroke-linecap="round" stroke-linejoin="round" stroke-miterlimit="10" d="
	M434.675,197.638v-9.928"/>
<path fill="none" stroke="#F9BBB4" stroke-width="10" stroke-linecap="round" stroke-linejoin="round" stroke-miterlimit="10" d="
	M479.716,104.954l10.262-11.012"/>
<path fill="none" stroke="#F9BBB4" stroke-width="10" stroke-linecap="round" stroke-linejoin="round" stroke-miterlimit="10" d="
	M464.265,121.534l15.451-16.579"/>
<path fill="none" stroke="#F9BBB4" stroke-width="10" stroke-linecap="round" stroke-linejoin="round" stroke-miterlimit="10" d="
	M454.579,160.493l-14.443-13.063l24.129-25.896"/>
<path fill="none" stroke="#F9BBB4" stroke-width="10" stroke-linecap="round" stroke-linejoin="round" stroke-miterlimit="10" d="
	M485.564,188.519l-30.982-28.026"/>
<path fill="none" stroke="#F9BBB4" stroke-width="10" stroke-linecap="round" stroke-linejoin="round" stroke-miterlimit="10" d="
	M495.65,197.642l-10.086-9.123"/>
<g id="letter-4">
</g>
<g id="letter-8">
</g>
<path fill="none" stroke="#F9BBB4" stroke-width="10" stroke-linecap="round" stroke-linejoin="round" stroke-miterlimit="10" d="
	M184.865,325.371v26.754"/>
<path fill="none" stroke="#F9BBB4" stroke-width="10" stroke-linecap="round" stroke-linejoin="round" stroke-miterlimit="10" d="
	M184.865,282.379v42.992"/>
<path fill="none" stroke="#F9BBB4" stroke-width="10" stroke-linecap="round" stroke-linejoin="round" stroke-miterlimit="10" d="
	M184.865,248.477v33.901"/>
<path fill="none" stroke="#F9BBB4" stroke-width="10" stroke-linecap="round" stroke-linejoin="round" stroke-miterlimit="10" d="
	M148.748,248.477h-4.353"/>
<path fill="none" stroke="#F9BBB4" stroke-width="10" stroke-linecap="round" stroke-linejoin="round" stroke-miterlimit="10" d="
	M184.865,248.477h-36.117"/>
<path fill="none" stroke="#F9BBB4" stroke-width="10" stroke-linecap="round" stroke-linejoin="round" stroke-miterlimit="10" d="
	M206.748,248.477h-21.883"/>
<path fill="none" stroke="#F9BBB4" stroke-width="10" stroke-linecap="round" stroke-linejoin="round" stroke-miterlimit="10" d="
	M225.323,248.477h-18.573"/>
<path fill="none" stroke="#F9BBB4" stroke-width="10" stroke-linecap="round" stroke-linejoin="round" stroke-miterlimit="10" d="
	M271.466,325.357v27.482"/>
<path fill="none" stroke="#F9BBB4" stroke-width="10" stroke-linecap="round" stroke-linejoin="round" stroke-miterlimit="10" d="
	M271.466,283.366v41.992"/>
<path fill="none" stroke="#F9BBB4" stroke-width="10" stroke-linecap="round" stroke-linejoin="round" stroke-miterlimit="10" d="
	M271.466,264.366v19"/>
<path fill="none" stroke="#F9BBB4" stroke-width="10" stroke-linecap="round" stroke-linejoin="round" stroke-miterlimit="10" d="
	M271.466,248.477v15.89"/>
<path fill="none" stroke="#F9BBB4" stroke-width="10" stroke-linecap="round" stroke-linejoin="round" stroke-miterlimit="10" d="
	M326.918,328.355v24.484"/>
<path fill="none" stroke="#F9BBB4" stroke-width="10" stroke-linecap="round" stroke-linejoin="round" stroke-miterlimit="10" d="
	M326.918,293.366v34.99"/>
<path fill="none" stroke="#F9BBB4" stroke-width="10" stroke-linecap="round" stroke-linejoin="round" stroke-miterlimit="10" d="
	M326.918,260.366v33"/>
<path fill="none" stroke="#F9BBB4" stroke-width="10" stroke-linecap="round" stroke-linejoin="round" stroke-miterlimit="10" d="
	M326.918,248.477v11.89"/>
<path fill="none" stroke="#F9BBB4" stroke-width="10" stroke-linecap="round" stroke-linejoin="round" stroke-miterlimit="10" d="
	M280.403,303.129h-8.938"/>
<path fill="none" stroke="#F9BBB4" stroke-width="10" stroke-linecap="round" stroke-linejoin="round" stroke-miterlimit="10" d="
	M308.406,303.129h-28.003"/>
<path fill="none" stroke="#F9BBB4" stroke-width="10" stroke-linecap="round" stroke-linejoin="round" stroke-miterlimit="10" d="
	M326.918,303.129h-18.514"/>
<path fill="none" stroke="#F9BBB4" stroke-width="10" stroke-linecap="round" stroke-linejoin="round" stroke-miterlimit="10" d="
	M427.106,351.828h12.924"/>
<path fill="none" stroke="#F9BBB4" stroke-width="10" stroke-linecap="round" stroke-linejoin="round" stroke-miterlimit="10" d="
	M413.106,351.828h14"/>
<path fill="none" stroke="#F9BBB4" stroke-width="10" stroke-linecap="round" stroke-linejoin="round" stroke-miterlimit="10" d="
	M381.352,351.828h31.754"/>
<path fill="none" stroke="#F9BBB4" stroke-width="10" stroke-linecap="round" stroke-linejoin="round" stroke-miterlimit="10" d="
	M381.352,331.988v19.84"/>
<path fill="none" stroke="#F9BBB4" stroke-width="10" stroke-linecap="round" stroke-linejoin="round" stroke-miterlimit="10" d="
	M381.352,278v53.988"/>
<path fill="none" stroke="#F9BBB4" stroke-width="10" stroke-linecap="round" stroke-linejoin="round" stroke-miterlimit="10" d="
	M401.106,248.477h-19.754V278"/>
<path fill="none" stroke="#F9BBB4" stroke-width="10" stroke-linecap="round" stroke-linejoin="round" stroke-miterlimit="10" d="
	M426.106,248.477h-25"/>
<path fill="none" stroke="#F9BBB4" stroke-width="10" stroke-linecap="round" stroke-linejoin="round" stroke-miterlimit="10" d="
	M438.739,248.477h-12.633"/>
<path fill="none" stroke="#F9BBB4" stroke-width="10" stroke-linecap="round" stroke-linejoin="round" stroke-miterlimit="10" d="
	M404.106,298.805h-22.754"/>
<path fill="none" stroke="#F9BBB4" stroke-width="10" stroke-linecap="round" stroke-linejoin="round" stroke-miterlimit="10" d="
	M426.106,298.805h-22"/>
<path fill="none" stroke="#F9BBB4" stroke-width="10" stroke-linecap="round" stroke-linejoin="round" stroke-miterlimit="10" d="
	M436.25,298.805h-10.146"/>
<g id="letter-9">
</g>
<path fill="none" stroke="#F9BBB4" stroke-width="10" stroke-linecap="round" stroke-linejoin="round" stroke-miterlimit="10" d="
	M127.422,451.592H99.754"/>
<path fill="none" stroke="#F9BBB4" stroke-width="10" stroke-linecap="round" stroke-linejoin="round" stroke-miterlimit="10" d="
	M143.456,450.588c-2.021,0.654-4.1,1.004-6.161,1.004h-9.873"/>
<path fill="none" stroke="#F9BBB4" stroke-width="10" stroke-linecap="round" stroke-linejoin="round" stroke-miterlimit="10" d="
	M153.84,409.123c3.966,4.25,6.515,10.307,6.515,17.529c0,11.822-7.842,20.985-16.896,23.936"/>
<path fill="none" stroke="#F9BBB4" stroke-width="10" stroke-linecap="round" stroke-linejoin="round" stroke-miterlimit="10" d="
	M138.823,402.43c5.67,0,11.055,2.441,15.021,6.691"/>
<path fill="none" stroke="#F9BBB4" stroke-width="10" stroke-linecap="round" stroke-linejoin="round" stroke-miterlimit="10" d="
	M99.754,402.43h39.066"/>
<path fill="none" stroke="#F9BBB4" stroke-width="10" stroke-linecap="round" stroke-linejoin="round" stroke-miterlimit="10" d="
	M99.754,427.477V402.43"/>
<path fill="none" stroke="#F9BBB4" stroke-width="10" stroke-linecap="round" stroke-linejoin="round" stroke-miterlimit="10" d="
	M99.754,451.592v-24.112"/>
<path fill="none" stroke="#F9BBB4" stroke-width="10" stroke-linecap="round" stroke-linejoin="round" stroke-miterlimit="10" d="
	M99.754,476.477v-24.887"/>
<path fill="none" stroke="#F9BBB4" stroke-width="10" stroke-linecap="round" stroke-linejoin="round" stroke-miterlimit="10" d="
	M127.421,505.07H99.754v-28.595"/>
<path fill="none" stroke="#F9BBB4" stroke-width="10" stroke-linecap="round" stroke-linejoin="round" stroke-miterlimit="10" d="
	M158.091,495.639c-4.462,5.841-10.905,9.433-17.229,9.433h-13.438"/>
<path fill="none" stroke="#F9BBB4" stroke-width="10" stroke-linecap="round" stroke-linejoin="round" stroke-miterlimit="10" d="
	M160.819,466.246c1.938,3.554,3.104,7.59,3.104,11.93c0,6.789-2.292,12.834-5.83,17.466"/>
<path fill="none" stroke="#F9BBB4" stroke-width="10" stroke-linecap="round" stroke-linejoin="round" stroke-miterlimit="10" d="
	M138.294,451.525c8.095,0,17.693,5.848,22.522,14.721"/>
<path fill="none" stroke="#F9BBB4" stroke-width="10" stroke-linecap="round" stroke-linejoin="round" stroke-miterlimit="10" d="
	M259.945,502.314c10.24-5.475,16.04-16.145,16.04-28.41v-26.197"/>
<path fill="none" stroke="#F9BBB4" stroke-width="10" stroke-linecap="round" stroke-linejoin="round" stroke-miterlimit="10" d="
	M210.679,462.705v11.197c0,17.853,12.277,32.316,32.651,32.316c6.373,0,11.953-1.416,16.61-3.906"/>
<path fill="none" stroke="#F9BBB4" stroke-width="10" stroke-linecap="round" stroke-linejoin="round" stroke-miterlimit="10" d="
	M219.853,411.398c-5.926,5.885-9.174,14.172-9.174,23.352v27.955"/>
<path fill="none" stroke="#F9BBB4" stroke-width="10" stroke-linecap="round" stroke-linejoin="round" stroke-miterlimit="10" d="
	M231.389,404.314c-4.536,1.545-8.409,3.979-11.536,7.086"/>
<path fill="none" stroke="#F9BBB4" stroke-width="10" stroke-linecap="round" stroke-linejoin="round" stroke-miterlimit="10" d="
	M257.788,405.289c-4.194-1.838-9.039-2.857-14.456-2.857c-4.366,0-8.36,0.664-11.942,1.885"/>
<path fill="none" stroke="#F9BBB4" stroke-width="10" stroke-linecap="round" stroke-linejoin="round" stroke-miterlimit="10" d="
	M275.985,447.705V434.75c0-13.104-6.614-24.389-18.194-29.461"/>
<path fill="none" stroke="#F9BBB4" stroke-width="10" stroke-linecap="round" stroke-linejoin="round" stroke-miterlimit="10" d="
	M374.672,410.925c8.301,6.921,12.893,17.455,12.893,29.255v9.143"/>
<path fill="none" stroke="#F9BBB4" stroke-width="10" stroke-linecap="round" stroke-linejoin="round" stroke-miterlimit="10" d="
	M349.424,402.43c10.33,0,18.881,3.184,25.248,8.493"/>
<path fill="none" stroke="#F9BBB4" stroke-width="10" stroke-linecap="round" stroke-linejoin="round" stroke-miterlimit="10" d="
	M324.926,418.318V402.43h24.498"/>
<path fill="none" stroke="#F9BBB4" stroke-width="10" stroke-linecap="round" stroke-linejoin="round" stroke-miterlimit="10" d="
	M324.926,476.318v-58"/>
<path fill="none" stroke="#F9BBB4" stroke-width="10" stroke-linecap="round" stroke-linejoin="round" stroke-miterlimit="10" d="
	M324.926,506.311v-29.99"/>
<path fill="none" stroke="#F9BBB4" stroke-width="10" stroke-linecap="round" stroke-linejoin="round" stroke-miterlimit="10" d="
	M360.022,505.086c-3.279,0.8-6.816,1.227-10.598,1.227h-24.498"/>
<path fill="none" stroke="#F9BBB4" stroke-width="10" stroke-linecap="round" stroke-linejoin="round" stroke-miterlimit="10" d="
	M383.946,485.648c-4.391,9.501-12.629,16.683-23.924,19.438"/>
<path fill="none" stroke="#F9BBB4" stroke-width="10" stroke-linecap="round" stroke-linejoin="round" stroke-miterlimit="10" d="
	M387.565,449.318v19.243c0,6.149-1.248,11.957-3.619,17.088"/>
<path fill="none" stroke="#F9BBB4" stroke-width="10" stroke-linecap="round" stroke-linejoin="round" stroke-miterlimit="10" d="
	M462.078,486.015v19.612"/>
<path fill="none" stroke="#F9BBB4" stroke-width="10" stroke-linecap="round" stroke-linejoin="round" stroke-miterlimit="10" d="
	M462.078,455.94v30.072"/>
<path fill="none" stroke="#F9BBB4" stroke-width="10" stroke-linecap="round" stroke-linejoin="round" stroke-miterlimit="10" d="
	M490.11,416.652l10.148-14.223"/>
<path fill="none" stroke="#F9BBB4" stroke-width="10" stroke-linecap="round" stroke-linejoin="round" stroke-miterlimit="10" d="
	M473.639,439.74l16.473-23.088"/>
<path fill="none" stroke="#F9BBB4" stroke-width="10" stroke-linecap="round" stroke-linejoin="round" stroke-miterlimit="10" d="
	M447.375,435.336l14.703,20.604l11.561-16.2"/>
<path fill="none" stroke="#F9BBB4" stroke-width="10" stroke-linecap="round" stroke-linejoin="round" stroke-miterlimit="10" d="
	M423.897,402.43l23.479,32.903"/>
</svg>
