<?xml version="1.0" encoding="utf-8"?>
<!-- Generator: Adobe Illustrator 16.0.0, SVG Export Plug-In . SVG Version: 6.00 Build 0)  -->
<!DOCTYPE svg PUBLIC "-//W3C//DTD SVG 1.1//EN" "http://www.w3.org/Graphics/SVG/1.1/DTD/svg11.dtd">
<svg version="1.1" id="Layer_1" xmlns="http://www.w3.org/2000/svg" xmlns:xlink="http://www.w3.org/1999/xlink" x="0px" y="0px"
	 width="420px" height="461px" viewBox="0 0 420 461" enable-background="new 0 0 420 461" xml:space="preserve">
<line fill="none" stroke="#DDB99F" stroke-miterlimit="10" x1="3" y1="102.772" x2="3" y2="113.705"/>
<line fill="none" stroke="#DDB99F" stroke-miterlimit="10" x1="3" y1="90.772" x2="3" y2="102.772"/>
<line fill="none" stroke="#DDB99F" stroke-miterlimit="10" x1="3" y1="81.772" x2="3" y2="90.772"/>
<line fill="none" stroke="#DDB99F" stroke-miterlimit="10" x1="3" y1="65.439" x2="3" y2="81.772"/>
<line fill="none" stroke="#DDB99F" stroke-miterlimit="10" x1="3" y1="44.772" x2="3" y2="65.439"/>
<line fill="none" stroke="#DDB99F" stroke-miterlimit="10" x1="3" y1="30.772" x2="3" y2="44.772"/>
<line fill="none" stroke="#DDB99F" stroke-miterlimit="10" x1="3" y1="12.772" x2="3" y2="30.772"/>
<line fill="none" stroke="#DDB99F" stroke-miterlimit="10" x1="3" y1="2.139" x2="3" y2="12.772"/>
<line fill="none" stroke="#DDB99F" stroke-miterlimit="10" x1="71.055" y1="110.106" x2="71.055" y2="113.705"/>
<line fill="none" stroke="#DDB99F" stroke-miterlimit="10" x1="71.055" y1="100.522" x2="71.055" y2="110.106"/>
<line fill="none" stroke="#DDB99F" stroke-miterlimit="10" x1="71.055" y1="92.106" x2="71.055" y2="100.522"/>
<line fill="none" stroke="#DDB99F" stroke-miterlimit="10" x1="71.055" y1="76.772" x2="71.055" y2="92.106"/>
<line fill="none" stroke="#DDB99F" stroke-miterlimit="10" x1="71.055" y1="55.596" x2="71.055" y2="76.772"/>
<line fill="none" stroke="#DDB99F" stroke-miterlimit="10" x1="71.055" y1="39.439" x2="71.055" y2="55.596"/>
<line fill="none" stroke="#DDB99F" stroke-miterlimit="10" x1="71.055" y1="26.772" x2="71.055" y2="39.439"/>
<line fill="none" stroke="#DDB99F" stroke-miterlimit="10" x1="71.055" y1="14.106" x2="71.055" y2="26.772"/>
<line fill="none" stroke="#DDB99F" stroke-miterlimit="10" x1="71.055" y1="2.139" x2="71.055" y2="14.106"/>
<line fill="none" stroke="#DDB99F" stroke-miterlimit="10" x1="18.352" y1="55.596" x2="3" y2="55.596"/>
<line fill="none" stroke="#DDB99F" stroke-miterlimit="10" x1="36.435" y1="55.596" x2="18.352" y2="55.596"/>
<line fill="none" stroke="#DDB99F" stroke-miterlimit="10" x1="55.018" y1="55.596" x2="36.435" y2="55.596"/>
<line fill="none" stroke="#DDB99F" stroke-miterlimit="10" x1="71.055" y1="55.596" x2="55.018" y2="55.596"/>
<line fill="none" stroke="#DDB99F" stroke-miterlimit="10" x1="115.823" y1="111.067" x2="114.729" y2="114.062"/>
<line fill="none" stroke="#DDB99F" stroke-miterlimit="10" x1="117.271" y1="107.108" x2="115.823" y2="111.067"/>
<line fill="none" stroke="#DDB99F" stroke-miterlimit="10" x1="118.502" y1="103.738" x2="117.271" y2="107.108"/>
<line fill="none" stroke="#DDB99F" stroke-miterlimit="10" x1="120.174" y1="99.164" x2="118.502" y2="103.738"/>
<line fill="none" stroke="#DDB99F" stroke-miterlimit="10" x1="122.333" y1="93.254" x2="120.174" y2="99.164"/>
<line fill="none" stroke="#DDB99F" stroke-miterlimit="10" x1="123.508" y1="90.041" x2="122.333" y2="93.254"/>
<line fill="none" stroke="#DDB99F" stroke-miterlimit="10" x1="130.604" y1="70.622" x2="123.508" y2="90.041"/>
<line fill="none" stroke="#DDB99F" stroke-miterlimit="10" x1="133.527" y1="62.625" x2="130.604" y2="70.622"/>
<line fill="none" stroke="#DDB99F" stroke-miterlimit="10" x1="137.094" y1="52.865" x2="133.527" y2="62.625"/>
<line fill="none" stroke="#DDB99F" stroke-miterlimit="10" x1="143.625" y1="34.994" x2="137.094" y2="52.865"/>
<line fill="none" stroke="#DDB99F" stroke-miterlimit="10" x1="148.63" y1="21.297" x2="143.625" y2="34.994"/>
<line fill="none" stroke="#DDB99F" stroke-miterlimit="10" x1="151.23" y1="14.183" x2="148.63" y2="21.297"/>
<polyline fill="none" stroke="#DDB99F" stroke-miterlimit="10" points="158.182,8.343 155.763,1.782 151.23,14.183 "/>
<line fill="none" stroke="#DDB99F" stroke-miterlimit="10" x1="162.875" y1="21.07" x2="158.182" y2="8.343"/>
<line fill="none" stroke="#DDB99F" stroke-miterlimit="10" x1="166.845" y1="31.834" x2="162.875" y2="21.07"/>
<line fill="none" stroke="#DDB99F" stroke-miterlimit="10" x1="171.112" y1="43.405" x2="166.845" y2="31.834"/>
<line fill="none" stroke="#DDB99F" stroke-miterlimit="10" x1="177.675" y1="61.203" x2="171.112" y2="43.405"/>
<line fill="none" stroke="#DDB99F" stroke-miterlimit="10" x1="188.119" y1="89.525" x2="177.675" y2="61.203"/>
<line fill="none" stroke="#DDB99F" stroke-miterlimit="10" x1="189.972" y1="94.549" x2="188.119" y2="89.525"/>
<line fill="none" stroke="#DDB99F" stroke-miterlimit="10" x1="191.981" y1="99.997" x2="189.972" y2="94.549"/>
<line fill="none" stroke="#DDB99F" stroke-miterlimit="10" x1="197.167" y1="114.062" x2="191.981" y2="99.997"/>
<line fill="none" stroke="#DDB99F" stroke-miterlimit="10" x1="139.684" y1="80.979" x2="126.819" y2="80.979"/>
<line fill="none" stroke="#DDB99F" stroke-miterlimit="10" x1="146.351" y1="80.979" x2="139.684" y2="80.979"/>
<line fill="none" stroke="#DDB99F" stroke-miterlimit="10" x1="161.685" y1="80.979" x2="146.351" y2="80.979"/>
<line fill="none" stroke="#DDB99F" stroke-miterlimit="10" x1="175.685" y1="80.979" x2="161.685" y2="80.979"/>
<line fill="none" stroke="#DDB99F" stroke-miterlimit="10" x1="184.968" y1="80.979" x2="175.685" y2="80.979"/>
<path fill="none" stroke="#DDB99F" stroke-miterlimit="10" d="M293.098,113.363c3.422-1.052,6.535-2.348,8.806-3.709"/>
<path fill="none" stroke="#DDB99F" stroke-miterlimit="10" d="M288.092,114.672c1.7-0.368,3.388-0.811,5.006-1.309"/>
<path fill="none" stroke="#DDB99F" stroke-miterlimit="10" d="M270.827,115.226c2.361,0.406,4.848,0.618,7.453,0.618
	c3.023-0.001,6.441-0.441,9.812-1.172"/>
<path fill="none" stroke="#DDB99F" stroke-miterlimit="10" d="M255.396,108.71c4.258,3.214,9.439,5.488,15.432,6.516"/>
<path fill="none" stroke="#DDB99F" stroke-miterlimit="10" d="M246.56,98.577c2.221,3.94,5.19,7.382,8.836,10.133"/>
<path fill="none" stroke="#DDB99F" stroke-miterlimit="10" d="M241.835,76.106v3.666c0,6.891,1.64,13.33,4.725,18.806"/>
<line fill="none" stroke="#DDB99F" stroke-miterlimit="10" x1="241.835" y1="61.106" x2="241.835" y2="76.106"/>
<line fill="none" stroke="#DDB99F" stroke-miterlimit="10" x1="241.835" y1="42.106" x2="241.835" y2="61.106"/>
<path fill="none" stroke="#DDB99F" stroke-miterlimit="10" d="M245.001,20.392c-2.076,4.741-3.166,10.061-3.166,15.681v6.034"/>
<path fill="none" stroke="#DDB99F" stroke-miterlimit="10" d="M256.756,6.16c-5.25,3.557-9.23,8.467-11.755,14.231"/>
<path fill="none" stroke="#DDB99F" stroke-miterlimit="10" d="M267.647,1.298c-4.068,1.05-7.713,2.708-10.892,4.862"/>
<path fill="none" stroke="#DDB99F" stroke-miterlimit="10" d="M286.459,0.838c-2.83-0.53-5.643-0.839-8.179-0.838
	c-3.805,0-7.356,0.452-10.633,1.298"/>
<path fill="none" stroke="#DDB99F" stroke-miterlimit="10" d="M292.224,2.215c-1.873-0.544-3.822-1.013-5.765-1.377"/>
<path fill="none" stroke="#DDB99F" stroke-miterlimit="10" d="M301.903,6.184c-2.465-1.476-5.918-2.875-9.68-3.969"/>
<line fill="none" stroke="#DDB99F" stroke-miterlimit="10" x1="352.863" y1="10.773" x2="352.863" y2="2.137"/>
<line fill="none" stroke="#DDB99F" stroke-miterlimit="10" x1="352.863" y1="22.106" x2="352.863" y2="10.773"/>
<line fill="none" stroke="#DDB99F" stroke-miterlimit="10" x1="352.863" y1="31.439" x2="352.863" y2="22.106"/>
<line fill="none" stroke="#DDB99F" stroke-miterlimit="10" x1="352.863" y1="43.773" x2="352.863" y2="31.439"/>
<line fill="none" stroke="#DDB99F" stroke-miterlimit="10" x1="352.863" y1="56.773" x2="352.863" y2="43.773"/>
<line fill="none" stroke="#DDB99F" stroke-miterlimit="10" x1="352.863" y1="75.773" x2="352.863" y2="56.773"/>
<line fill="none" stroke="#DDB99F" stroke-miterlimit="10" x1="352.863" y1="83.772" x2="352.863" y2="75.773"/>
<line fill="none" stroke="#DDB99F" stroke-miterlimit="10" x1="352.863" y1="92.106" x2="352.863" y2="83.772"/>
<line fill="none" stroke="#DDB99F" stroke-miterlimit="10" x1="352.863" y1="105.106" x2="352.863" y2="92.106"/>
<line fill="none" stroke="#DDB99F" stroke-miterlimit="10" x1="352.863" y1="113.703" x2="352.863" y2="105.106"/>
<line fill="none" stroke="#DDB99F" stroke-miterlimit="10" x1="404.379" y1="10.826" x2="412.363" y2="2.137"/>
<line fill="none" stroke="#DDB99F" stroke-miterlimit="10" x1="392.754" y1="23.477" x2="404.379" y2="10.826"/>
<line fill="none" stroke="#DDB99F" stroke-miterlimit="10" x1="386.34" y1="30.457" x2="392.754" y2="23.477"/>
<line fill="none" stroke="#DDB99F" stroke-miterlimit="10" x1="373.44" y1="44.495" x2="386.34" y2="30.457"/>
<line fill="none" stroke="#DDB99F" stroke-miterlimit="10" x1="362.781" y1="56.094" x2="373.44" y2="44.495"/>
<line fill="none" stroke="#DDB99F" stroke-miterlimit="10" x1="367.896" y1="61.805" x2="362.781" y2="56.094"/>
<line fill="none" stroke="#DDB99F" stroke-miterlimit="10" x1="386.861" y1="82.987" x2="367.896" y2="61.805"/>
<line fill="none" stroke="#DDB99F" stroke-miterlimit="10" x1="393.302" y1="90.18" x2="386.861" y2="82.987"/>
<line fill="none" stroke="#DDB99F" stroke-miterlimit="10" x1="403.372" y1="101.427" x2="393.302" y2="90.18"/>
<line fill="none" stroke="#DDB99F" stroke-miterlimit="10" x1="414.369" y1="113.707" x2="403.372" y2="101.427"/>
<line fill="none" stroke="#DDB99F" stroke-miterlimit="10" x1="327.018" y1="277.767" x2="333.68" y2="277.767"/>
<line fill="none" stroke="#DDB99F" stroke-miterlimit="10" x1="320.685" y1="277.767" x2="327.018" y2="277.767"/>
<line fill="none" stroke="#DDB99F" stroke-miterlimit="10" x1="311.018" y1="277.767" x2="320.685" y2="277.767"/>
<line fill="none" stroke="#DDB99F" stroke-miterlimit="10" x1="299.685" y1="277.767" x2="311.018" y2="277.767"/>
<line fill="none" stroke="#DDB99F" stroke-miterlimit="10" x1="286.352" y1="277.767" x2="299.685" y2="277.767"/>
<line fill="none" stroke="#DDB99F" stroke-miterlimit="10" x1="277.324" y1="277.767" x2="286.352" y2="277.767"/>
<line fill="none" stroke="#DDB99F" stroke-miterlimit="10" x1="277.324" y1="268.106" x2="277.324" y2="277.767"/>
<line fill="none" stroke="#DDB99F" stroke-miterlimit="10" x1="277.324" y1="263.272" x2="277.324" y2="268.106"/>
<line fill="none" stroke="#DDB99F" stroke-miterlimit="10" x1="277.324" y1="252.773" x2="277.324" y2="263.272"/>
<line fill="none" stroke="#DDB99F" stroke-miterlimit="10" x1="277.324" y1="241.106" x2="277.324" y2="252.773"/>
<line fill="none" stroke="#DDB99F" stroke-miterlimit="10" x1="277.324" y1="230.106" x2="277.324" y2="241.106"/>
<line fill="none" stroke="#DDB99F" stroke-miterlimit="10" x1="277.324" y1="225.44" x2="277.324" y2="230.106"/>
<line fill="none" stroke="#DDB99F" stroke-miterlimit="10" x1="277.324" y1="219.657" x2="277.324" y2="225.44"/>
<line fill="none" stroke="#DDB99F" stroke-miterlimit="10" x1="277.324" y1="211.106" x2="277.324" y2="219.657"/>
<line fill="none" stroke="#DDB99F" stroke-miterlimit="10" x1="277.324" y1="199.772" x2="277.324" y2="211.106"/>
<line fill="none" stroke="#DDB99F" stroke-miterlimit="10" x1="277.324" y1="192.773" x2="277.324" y2="199.772"/>
<line fill="none" stroke="#DDB99F" stroke-miterlimit="10" x1="277.324" y1="180.106" x2="277.324" y2="192.773"/>
<line fill="none" stroke="#DDB99F" stroke-miterlimit="10" x1="277.324" y1="166.2" x2="277.324" y2="180.106"/>
<line fill="none" stroke="#DDB99F" stroke-miterlimit="10" x1="293.185" y1="166.2" x2="277.324" y2="166.2"/>
<line fill="none" stroke="#DDB99F" stroke-miterlimit="10" x1="310.352" y1="166.2" x2="293.185" y2="166.2"/>
<line fill="none" stroke="#DDB99F" stroke-miterlimit="10" x1="326.351" y1="166.2" x2="310.352" y2="166.2"/>
<line fill="none" stroke="#DDB99F" stroke-miterlimit="10" x1="332.441" y1="166.2" x2="326.351" y2="166.2"/>
<line fill="none" stroke="#DDB99F" stroke-miterlimit="10" x1="286.018" y1="219.657" x2="277.324" y2="219.657"/>
<line fill="none" stroke="#DDB99F" stroke-miterlimit="10" x1="298.685" y1="219.657" x2="286.018" y2="219.657"/>
<line fill="none" stroke="#DDB99F" stroke-miterlimit="10" x1="304.185" y1="219.657" x2="298.685" y2="219.657"/>
<line fill="none" stroke="#DDB99F" stroke-miterlimit="10" x1="312.685" y1="219.657" x2="304.185" y2="219.657"/>
<line fill="none" stroke="#DDB99F" stroke-miterlimit="10" x1="322.018" y1="219.657" x2="312.685" y2="219.657"/>
<line fill="none" stroke="#DDB99F" stroke-miterlimit="10" x1="330.051" y1="219.657" x2="322.018" y2="219.657"/>
<line fill="none" stroke="#DDB99F" stroke-miterlimit="10" x1="159" y1="270.773" x2="159" y2="277.767"/>
<line fill="none" stroke="#DDB99F" stroke-miterlimit="10" x1="159" y1="261.772" x2="159" y2="270.773"/>
<line fill="none" stroke="#DDB99F" stroke-miterlimit="10" x1="159" y1="249.44" x2="159" y2="261.772"/>
<line fill="none" stroke="#DDB99F" stroke-miterlimit="10" x1="159" y1="233.44" x2="159" y2="249.44"/>
<line fill="none" stroke="#DDB99F" stroke-miterlimit="10" x1="159" y1="204.106" x2="159" y2="233.44"/>
<line fill="none" stroke="#DDB99F" stroke-miterlimit="10" x1="159" y1="189.772" x2="159" y2="204.106"/>
<line fill="none" stroke="#DDB99F" stroke-miterlimit="10" x1="159" y1="175.106" x2="159" y2="189.772"/>
<line fill="none" stroke="#DDB99F" stroke-miterlimit="10" x1="159" y1="166.2" x2="159" y2="175.106"/>
<line fill="none" stroke="#DDB99F" stroke-miterlimit="10" x1="227.055" y1="263.773" x2="227.055" y2="277.767"/>
<line fill="none" stroke="#DDB99F" stroke-miterlimit="10" x1="227.055" y1="248.44" x2="227.055" y2="263.773"/>
<line fill="none" stroke="#DDB99F" stroke-miterlimit="10" x1="227.055" y1="233.44" x2="227.055" y2="248.44"/>
<line fill="none" stroke="#DDB99F" stroke-miterlimit="10" x1="227.055" y1="211.773" x2="227.055" y2="233.44"/>
<line fill="none" stroke="#DDB99F" stroke-miterlimit="10" x1="227.055" y1="198.44" x2="227.055" y2="211.773"/>
<line fill="none" stroke="#DDB99F" stroke-miterlimit="10" x1="227.055" y1="191.772" x2="227.055" y2="198.44"/>
<line fill="none" stroke="#DDB99F" stroke-miterlimit="10" x1="227.055" y1="180.773" x2="227.055" y2="191.772"/>
<line fill="none" stroke="#DDB99F" stroke-miterlimit="10" x1="227.055" y1="172.106" x2="227.055" y2="180.773"/>
<line fill="none" stroke="#DDB99F" stroke-miterlimit="10" x1="227.055" y1="166.2" x2="227.055" y2="172.106"/>
<line fill="none" stroke="#DDB99F" stroke-miterlimit="10" x1="176.351" y1="219.657" x2="159" y2="219.657"/>
<line fill="none" stroke="#DDB99F" stroke-miterlimit="10" x1="189.185" y1="219.657" x2="176.351" y2="219.657"/>
<line fill="none" stroke="#DDB99F" stroke-miterlimit="10" x1="203.352" y1="219.657" x2="189.185" y2="219.657"/>
<line fill="none" stroke="#DDB99F" stroke-miterlimit="10" x1="215.352" y1="219.657" x2="203.352" y2="219.657"/>
<line fill="none" stroke="#DDB99F" stroke-miterlimit="10" x1="227.055" y1="219.657" x2="215.352" y2="219.657"/>
<line fill="none" stroke="#DDB99F" stroke-miterlimit="10" x1="29.185" y1="389.828" x2="3" y2="389.828"/>
<path fill="none" stroke="#DDB99F" stroke-miterlimit="10" d="M56.033,380.24c-4.775,5.97-11.734,9.588-18.562,9.588h-8.286"/>
<path fill="none" stroke="#DDB99F" stroke-miterlimit="10" d="M59.199,375.279c-0.891,1.79-1.958,3.45-3.166,4.961"/>
<path fill="none" stroke="#DDB99F" stroke-miterlimit="10" d="M59.943,351.265c1.388,3.38,2.176,7.235,2.176,11.458
	c0,4.618-1.083,8.864-2.92,12.557"/>
<path fill="none" stroke="#DDB99F" stroke-miterlimit="10" d="M51.711,340.584c3.504,2.56,6.395,6.203,8.232,10.681"/>
<path fill="none" stroke="#DDB99F" stroke-miterlimit="10" d="M39.105,336.395c4.544,0,8.916,1.494,12.606,4.189"/>
<path fill="none" stroke="#DDB99F" stroke-miterlimit="10" d="M28.685,336.395h10.421"/>
<line fill="none" stroke="#DDB99F" stroke-miterlimit="10" x1="3" y1="336.395" x2="28.685" y2="336.395"/>
<line fill="none" stroke="#DDB99F" stroke-miterlimit="10" x1="3" y1="351.773" x2="3" y2="336.395"/>
<line fill="none" stroke="#DDB99F" stroke-miterlimit="10" x1="3" y1="366.107" x2="3" y2="351.773"/>
<line fill="none" stroke="#DDB99F" stroke-miterlimit="10" x1="3" y1="375.272" x2="3" y2="366.107"/>
<line fill="none" stroke="#DDB99F" stroke-miterlimit="10" x1="3" y1="381.44" x2="3" y2="375.272"/>
<line fill="none" stroke="#DDB99F" stroke-miterlimit="10" x1="3" y1="399.107" x2="3" y2="381.44"/>
<line fill="none" stroke="#DDB99F" stroke-miterlimit="10" x1="3" y1="412.773" x2="3" y2="399.107"/>
<line fill="none" stroke="#DDB99F" stroke-miterlimit="10" x1="3" y1="426.773" x2="3" y2="412.773"/>
<line fill="none" stroke="#DDB99F" stroke-miterlimit="10" x1="3" y1="438.107" x2="3" y2="426.773"/>
<line fill="none" stroke="#DDB99F" stroke-miterlimit="10" x1="3" y1="447.961" x2="3" y2="438.107"/>
<line fill="none" stroke="#DDB99F" stroke-miterlimit="10" x1="12.686" y1="447.961" x2="3" y2="447.961"/>
<line fill="none" stroke="#DDB99F" stroke-miterlimit="10" x1="22.686" y1="447.961" x2="12.686" y2="447.961"/>
<line fill="none" stroke="#DDB99F" stroke-miterlimit="10" x1="29.352" y1="447.961" x2="22.686" y2="447.961"/>
<line fill="none" stroke="#DDB99F" stroke-miterlimit="10" x1="37.686" y1="447.961" x2="29.352" y2="447.961"/>
<path fill="none" stroke="#DDB99F" stroke-miterlimit="10" d="M49.373,446.153c-2.619,1.174-5.364,1.808-8.087,1.808h-3.6"/>
<path fill="none" stroke="#DDB99F" stroke-miterlimit="10" d="M57.857,439.928c-2.493,2.718-5.401,4.845-8.485,6.226"/>
<path fill="none" stroke="#DDB99F" stroke-miterlimit="10" d="M64.244,429.067c-1.42,4.193-3.654,7.882-6.387,10.86"/>
<path fill="none" stroke="#DDB99F" stroke-miterlimit="10" d="M65.932,418.725c0,3.679-0.609,7.156-1.688,10.343"/>
<path fill="none" stroke="#DDB99F" stroke-miterlimit="10" d="M63.815,408.28c1.34,3.213,2.116,6.727,2.116,10.444"/>
<path fill="none" stroke="#DDB99F" stroke-miterlimit="10" d="M61.791,404.314c0.768,1.262,1.448,2.586,2.024,3.966"/>
<path fill="none" stroke="#DDB99F" stroke-miterlimit="10" d="M54.447,395.996c2.835,2.271,5.376,5.087,7.344,8.318"/>
<path fill="none" stroke="#DDB99F" stroke-miterlimit="10" d="M52.504,394.555c0.66,0.452,1.309,0.933,1.943,1.441"/>
<path fill="none" stroke="#DDB99F" stroke-miterlimit="10" d="M45.194,390.892c2.488,0.819,4.971,2.062,7.31,3.663"/>
<path fill="none" stroke="#DDB99F" stroke-miterlimit="10" d="M38.537,389.758c2.154,0,4.407,0.394,6.657,1.134"/>
<line fill="none" stroke="#DDB99F" stroke-miterlimit="10" x1="231.227" y1="343.44" x2="231.227" y2="336.395"/>
<line fill="none" stroke="#DDB99F" stroke-miterlimit="10" x1="231.227" y1="351.773" x2="231.227" y2="343.44"/>
<line fill="none" stroke="#DDB99F" stroke-miterlimit="10" x1="231.227" y1="361.773" x2="231.227" y2="351.773"/>
<line fill="none" stroke="#DDB99F" stroke-miterlimit="10" x1="231.227" y1="371.107" x2="231.227" y2="361.773"/>
<line fill="none" stroke="#DDB99F" stroke-miterlimit="10" x1="231.227" y1="381.44" x2="231.227" y2="371.107"/>
<line fill="none" stroke="#DDB99F" stroke-miterlimit="10" x1="231.227" y1="388.44" x2="231.227" y2="381.44"/>
<line fill="none" stroke="#DDB99F" stroke-miterlimit="10" x1="231.227" y1="398.107" x2="231.227" y2="388.44"/>
<line fill="none" stroke="#DDB99F" stroke-miterlimit="10" x1="231.227" y1="404.773" x2="231.227" y2="398.107"/>
<line fill="none" stroke="#DDB99F" stroke-miterlimit="10" x1="231.227" y1="411.44" x2="231.227" y2="404.773"/>
<line fill="none" stroke="#DDB99F" stroke-miterlimit="10" x1="231.227" y1="418.44" x2="231.227" y2="411.44"/>
<line fill="none" stroke="#DDB99F" stroke-miterlimit="10" x1="231.227" y1="432.44" x2="231.227" y2="418.44"/>
<line fill="none" stroke="#DDB99F" stroke-miterlimit="10" x1="231.227" y1="443.773" x2="231.227" y2="432.44"/>
<line fill="none" stroke="#DDB99F" stroke-miterlimit="10" x1="231.227" y1="447.961" x2="231.227" y2="443.773"/>
<line fill="none" stroke="#DDB99F" stroke-miterlimit="10" x1="238.685" y1="447.961" x2="231.227" y2="447.961"/>
<line fill="none" stroke="#DDB99F" stroke-miterlimit="10" x1="250.352" y1="447.961" x2="238.685" y2="447.961"/>
<line fill="none" stroke="#DDB99F" stroke-miterlimit="10" x1="257.352" y1="447.961" x2="250.352" y2="447.961"/>
<path fill="none" stroke="#DDB99F" stroke-miterlimit="10" d="M267.348,447.74c-1.462,0.146-2.967,0.221-4.514,0.221h-5.482"/>
<path fill="none" stroke="#DDB99F" stroke-miterlimit="10" d="M277.454,445.391c-3.085,1.184-6.461,1.987-10.106,2.35"/>
<path fill="none" stroke="#DDB99F" stroke-miterlimit="10" d="M285.069,441.305c-2.29,1.642-4.834,3.019-7.615,4.086"/>
<path fill="none" stroke="#DDB99F" stroke-miterlimit="10" d="M293.304,432.741c-2.189,3.312-4.95,6.211-8.234,8.563"/>
<path fill="none" stroke="#DDB99F" stroke-miterlimit="10" d="M297.751,423.02c-1.008,3.507-2.502,6.777-4.447,9.722"/>
<path fill="none" stroke="#DDB99F" stroke-miterlimit="10" d="M299.203,414.435c-0.177,2.976-0.667,5.852-1.452,8.585"/>
<path fill="none" stroke="#DDB99F" stroke-miterlimit="10" d="M299.279,411.887c0,0.856-0.025,1.706-0.076,2.548"/>
<line fill="none" stroke="#DDB99F" stroke-miterlimit="10" x1="299.279" y1="403.107" x2="299.279" y2="411.887"/>
<line fill="none" stroke="#DDB99F" stroke-miterlimit="10" x1="299.279" y1="394.107" x2="299.279" y2="403.107"/>
<line fill="none" stroke="#DDB99F" stroke-miterlimit="10" x1="299.279" y1="386.107" x2="299.279" y2="394.107"/>
<line fill="none" stroke="#DDB99F" stroke-miterlimit="10" x1="299.279" y1="372.469" x2="299.279" y2="386.107"/>
<path fill="none" stroke="#DDB99F" stroke-miterlimit="10" d="M298.036,362.388c0.82,3.199,1.243,6.582,1.243,10.081"/>
<path fill="none" stroke="#DDB99F" stroke-miterlimit="10" d="M294.411,353.408c1.589,2.765,2.805,5.78,3.625,8.979"/>
<path fill="none" stroke="#DDB99F" stroke-miterlimit="10" d="M290.029,347.431c1.679,1.819,3.144,3.822,4.382,5.978"/>
<path fill="none" stroke="#DDB99F" stroke-miterlimit="10" d="M277.412,338.948c5.005,1.914,9.243,4.828,12.617,8.482"/>
<path fill="none" stroke="#DDB99F" stroke-miterlimit="10" d="M266.304,336.524c4.03,0.304,7.743,1.138,11.108,2.424"/>
<path fill="none" stroke="#DDB99F" stroke-miterlimit="10" d="M253.019,336.395h9.815c1.182,0,2.338,0.044,3.47,0.13"/>
<line fill="none" stroke="#DDB99F" stroke-miterlimit="10" x1="240.685" y1="336.395" x2="253.019" y2="336.395"/>
<line fill="none" stroke="#DDB99F" stroke-miterlimit="10" x1="231.227" y1="336.395" x2="240.685" y2="336.395"/>
<path fill="none" stroke="#DDB99F" stroke-miterlimit="10" d="M125.798,339.947c-2.195,1.405-4.179,3.041-5.938,4.874"/>
<path fill="none" stroke="#DDB99F" stroke-miterlimit="10" d="M136.045,335.537c-3.794,0.972-7.222,2.472-10.248,4.41"/>
<path fill="none" stroke="#DDB99F" stroke-miterlimit="10" d="M146.609,334.256c-3.778,0-7.306,0.446-10.564,1.281"/>
<path fill="none" stroke="#DDB99F" stroke-miterlimit="10" d="M159.238,336.128c-3.816-1.214-8.038-1.872-12.629-1.872"/>
<path fill="none" stroke="#DDB99F" stroke-miterlimit="10" d="M169.102,341.097c-2.887-2.112-6.187-3.799-9.864-4.969"/>
<path fill="none" stroke="#DDB99F" stroke-miterlimit="10" d="M177.566,350.233c-2.206-3.541-5.047-6.637-8.464-9.137"/>
<path fill="none" stroke="#DDB99F" stroke-miterlimit="10" d="M181.83,360.318c-0.923-3.63-2.356-7.024-4.264-10.085"/>
<path fill="none" stroke="#DDB99F" stroke-miterlimit="10" d="M183.055,370.328c0-3.473-0.416-6.831-1.225-10.01"/>
<path fill="none" stroke="#DDB99F" stroke-miterlimit="10" d="M183.055,380.773v-10.445"/>
<line fill="none" stroke="#DDB99F" stroke-miterlimit="10" x1="183.055" y1="389.439" x2="183.055" y2="380.773"/>
<line fill="none" stroke="#DDB99F" stroke-miterlimit="10" x1="183.055" y1="394.107" x2="183.055" y2="389.439"/>
<line fill="none" stroke="#DDB99F" stroke-miterlimit="10" x1="183.055" y1="406.44" x2="183.055" y2="394.107"/>
<path fill="none" stroke="#DDB99F" stroke-miterlimit="10" d="M183.02,415.774c0.023-0.579,0.035-1.161,0.035-1.747v-7.587"/>
<path fill="none" stroke="#DDB99F" stroke-miterlimit="10" d="M180.92,427.074c1.226-3.531,1.938-7.331,2.1-11.3"/>
<path fill="none" stroke="#DDB99F" stroke-miterlimit="10" d="M175.358,437.249c2.396-3.011,4.266-6.442,5.562-10.175"/>
<path fill="none" stroke="#DDB99F" stroke-miterlimit="10" d="M166.222,445.142c3.583-2.087,6.645-4.762,9.137-7.893"/>
<path fill="none" stroke="#DDB99F" stroke-miterlimit="10" d="M156.152,449.066c3.702-0.842,7.068-2.175,10.069-3.924"/>
<path fill="none" stroke="#DDB99F" stroke-miterlimit="10" d="M146.609,450.099c3.387,0,6.573-0.357,9.543-1.033"/>
<path fill="none" stroke="#DDB99F" stroke-miterlimit="10" d="M134.477,448.38c3.685,1.117,7.74,1.719,12.132,1.719"/>
<path fill="none" stroke="#DDB99F" stroke-miterlimit="10" d="M123.068,442.458c3.253,2.588,7.074,4.61,11.409,5.922"/>
<path fill="none" stroke="#DDB99F" stroke-miterlimit="10" d="M118.013,437.439c1.489,1.843,3.178,3.524,5.056,5.019"/>
<path fill="none" stroke="#DDB99F" stroke-miterlimit="10" d="M111.305,423.7c1.255,5.131,3.525,9.801,6.708,13.739"/>
<path fill="none" stroke="#DDB99F" stroke-miterlimit="10" d="M110.164,412.44v1.587c0,3.351,0.388,6.595,1.141,9.673"/>
<line fill="none" stroke="#DDB99F" stroke-miterlimit="10" x1="110.164" y1="401.106" x2="110.164" y2="412.44"/>
<line fill="none" stroke="#DDB99F" stroke-miterlimit="10" x1="110.164" y1="392.107" x2="110.164" y2="401.106"/>
<line fill="none" stroke="#DDB99F" stroke-miterlimit="10" x1="110.164" y1="376.107" x2="110.164" y2="392.107"/>
<path fill="none" stroke="#DDB99F" stroke-miterlimit="10" d="M110.283,367.129c-0.079,1.054-0.119,2.121-0.119,3.199v5.779"/>
<path fill="none" stroke="#DDB99F" stroke-miterlimit="10" d="M115.305,350.807c-2.851,4.783-4.57,10.343-5.021,16.322"/>
<path fill="none" stroke="#DDB99F" stroke-miterlimit="10" d="M119.859,344.821c-1.742,1.813-3.265,3.82-4.555,5.985"/>
<line fill="none" stroke="#DDB99F" stroke-miterlimit="10" x1="377.959" y1="444.107" x2="377.959" y2="447.963"/>
<line fill="none" stroke="#DDB99F" stroke-miterlimit="10" x1="377.959" y1="436.773" x2="377.959" y2="444.107"/>
<line fill="none" stroke="#DDB99F" stroke-miterlimit="10" x1="377.959" y1="430.44" x2="377.959" y2="436.773"/>
<line fill="none" stroke="#DDB99F" stroke-miterlimit="10" x1="377.959" y1="422.773" x2="377.959" y2="430.44"/>
<line fill="none" stroke="#DDB99F" stroke-miterlimit="10" x1="377.959" y1="413.44" x2="377.959" y2="422.773"/>
<line fill="none" stroke="#DDB99F" stroke-miterlimit="10" x1="377.959" y1="405.44" x2="377.959" y2="413.44"/>
<line fill="none" stroke="#DDB99F" stroke-miterlimit="10" x1="377.959" y1="397.539" x2="377.959" y2="405.44"/>
<line fill="none" stroke="#DDB99F" stroke-miterlimit="10" x1="411.332" y1="341.492" x2="414.369" y2="336.393"/>
<line fill="none" stroke="#DDB99F" stroke-miterlimit="10" x1="407.997" y1="347.096" x2="411.332" y2="341.492"/>
<line fill="none" stroke="#DDB99F" stroke-miterlimit="10" x1="403.318" y1="354.952" x2="407.997" y2="347.096"/>
<line fill="none" stroke="#DDB99F" stroke-miterlimit="10" x1="397.819" y1="364.187" x2="403.318" y2="354.952"/>
<line fill="none" stroke="#DDB99F" stroke-miterlimit="10" x1="394.895" y1="369.097" x2="397.819" y2="364.187"/>
<line fill="none" stroke="#DDB99F" stroke-miterlimit="10" x1="392.874" y1="372.489" x2="394.895" y2="369.097"/>
<line fill="none" stroke="#DDB99F" stroke-miterlimit="10" x1="387.989" y1="380.693" x2="392.874" y2="372.489"/>
<line fill="none" stroke="#DDB99F" stroke-miterlimit="10" x1="381.44" y1="391.691" x2="387.989" y2="380.693"/>
<line fill="none" stroke="#DDB99F" stroke-miterlimit="10" x1="377.959" y1="397.539" x2="381.44" y2="391.691"/>
<line fill="none" stroke="#DDB99F" stroke-miterlimit="10" x1="375.71" y1="393.762" x2="377.959" y2="397.539"/>
<line fill="none" stroke="#DDB99F" stroke-miterlimit="10" x1="371.204" y1="386.196" x2="375.71" y2="393.762"/>
<line fill="none" stroke="#DDB99F" stroke-miterlimit="10" x1="365.09" y1="375.931" x2="371.204" y2="386.196"/>
<line fill="none" stroke="#DDB99F" stroke-miterlimit="10" x1="360.733" y1="368.616" x2="365.09" y2="375.931"/>
<line fill="none" stroke="#DDB99F" stroke-miterlimit="10" x1="354.382" y1="357.95" x2="360.733" y2="368.616"/>
<line fill="none" stroke="#DDB99F" stroke-miterlimit="10" x1="348.442" y1="347.979" x2="354.382" y2="357.95"/>
<line fill="none" stroke="#DDB99F" stroke-miterlimit="10" x1="344.495" y1="341.353" x2="348.442" y2="347.979"/>
<line fill="none" stroke="#DDB99F" stroke-miterlimit="10" x1="341.541" y1="336.393" x2="344.495" y2="341.353"/>
<line fill="none" stroke="#DDB99F" stroke-miterlimit="10" x1="85.02" y1="267.106" x2="85.02" y2="277.767"/>
<line fill="none" stroke="#DDB99F" stroke-miterlimit="10" x1="85.02" y1="254.44" x2="85.02" y2="267.106"/>
<line fill="none" stroke="#DDB99F" stroke-miterlimit="10" x1="85.02" y1="246.772" x2="85.02" y2="254.44"/>
<line fill="none" stroke="#DDB99F" stroke-miterlimit="10" x1="85.02" y1="241.106" x2="85.02" y2="246.772"/>
<line fill="none" stroke="#DDB99F" stroke-miterlimit="10" x1="85.02" y1="226.106" x2="85.02" y2="241.106"/>
<line fill="none" stroke="#DDB99F" stroke-miterlimit="10" x1="85.02" y1="211.44" x2="85.02" y2="226.106"/>
<line fill="none" stroke="#DDB99F" stroke-miterlimit="10" x1="85.02" y1="199.272" x2="85.02" y2="211.44"/>
<line fill="none" stroke="#DDB99F" stroke-miterlimit="10" x1="85.02" y1="187.773" x2="85.02" y2="199.272"/>
<line fill="none" stroke="#DDB99F" stroke-miterlimit="10" x1="85.02" y1="172.773" x2="85.02" y2="187.773"/>
<line fill="none" stroke="#DDB99F" stroke-miterlimit="10" x1="85.02" y1="166.2" x2="85.02" y2="172.773"/>
<line fill="none" stroke="#DDB99F" stroke-miterlimit="10" x1="56.351" y1="166.2" x2="51" y2="166.2"/>
<line fill="none" stroke="#DDB99F" stroke-miterlimit="10" x1="65.685" y1="166.2" x2="56.351" y2="166.2"/>
<line fill="none" stroke="#DDB99F" stroke-miterlimit="10" x1="75.685" y1="166.2" x2="65.685" y2="166.2"/>
<line fill="none" stroke="#DDB99F" stroke-miterlimit="10" x1="97.351" y1="166.2" x2="75.685" y2="166.2"/>
<line fill="none" stroke="#DDB99F" stroke-miterlimit="10" x1="111.018" y1="166.2" x2="97.351" y2="166.2"/>
<line fill="none" stroke="#DDB99F" stroke-miterlimit="10" x1="119.031" y1="166.2" x2="111.018" y2="166.2"/>
</svg>
