<?xml version="1.0" encoding="utf-8"?>
<!-- Generator: Adobe Illustrator 16.0.0, SVG Export Plug-In . SVG Version: 6.00 Build 0)  -->
<!DOCTYPE svg PUBLIC "-//W3C//DTD SVG 1.1//EN" "http://www.w3.org/Graphics/SVG/1.1/DTD/svg11.dtd">
<svg version="1.1" id="Layer_1" xmlns="http://www.w3.org/2000/svg" xmlns:xlink="http://www.w3.org/1999/xlink" x="0px" y="0px"
	 width="1500px" height="1500px" viewBox="-400 -400 1500 1500" enable-background="new -400 -400 1500 1500" xml:space="preserve">
<path fill="none" stroke="#F9BBB4" stroke-width="10" stroke-linecap="round" stroke-linejoin="round" stroke-miterlimit="10" d="
	M-376.412-210.884v64.042"/>
<path fill="none" stroke="#F9BBB4" stroke-width="10" stroke-linecap="round" stroke-linejoin="round" stroke-miterlimit="10" d="
	M-376.412-308.725v97.838"/>
<path fill="none" stroke="#F9BBB4" stroke-width="10" stroke-linecap="round" stroke-linejoin="round" stroke-miterlimit="10" d="
	M-376.412-352.987v44.261"/>
<path fill="none" stroke="#F9BBB4" stroke-width="10" stroke-linecap="round" stroke-linejoin="round" stroke-miterlimit="10" d="
	M-376.412-390v37.016"/>
<path fill="none" stroke="#F9BBB4" stroke-width="10" stroke-linecap="round" stroke-linejoin="round" stroke-miterlimit="10" d="
	M-247.239-203.895v57.054"/>
<path fill="none" stroke="#F9BBB4" stroke-width="10" stroke-linecap="round" stroke-linejoin="round" stroke-miterlimit="10" d="
	M-247.239-285.431v81.535"/>
<path fill="none" stroke="#F9BBB4" stroke-width="10" stroke-linecap="round" stroke-linejoin="round" stroke-miterlimit="10" d="
	M-247.239-362.305v76.874"/>
<path fill="none" stroke="#F9BBB4" stroke-width="10" stroke-linecap="round" stroke-linejoin="round" stroke-miterlimit="10" d="
	M-247.239-390v27.696"/>
<path fill="none" stroke="#F9BBB4" stroke-width="10" stroke-linecap="round" stroke-linejoin="round" stroke-miterlimit="10" d="
	M-355.589-262.685h-20.824"/>
<path fill="none" stroke="#F9BBB4" stroke-width="10" stroke-linecap="round" stroke-linejoin="round" stroke-miterlimit="10" d="
	M-290.361-262.685h-65.228"/>
<path fill="none" stroke="#F9BBB4" stroke-width="10" stroke-linecap="round" stroke-linejoin="round" stroke-miterlimit="10" d="
	M-247.239-262.685h-43.122"/>
<path fill="none" stroke="#F9BBB4" stroke-width="10" stroke-linecap="round" stroke-linejoin="round" stroke-miterlimit="10" d="
	M-126.472-170.674l-8.102,22.085"/>
<path fill="none" stroke="#F9BBB4" stroke-width="10" stroke-linecap="round" stroke-linejoin="round" stroke-miterlimit="10" d="
	M-81.452-293.244l-45.018,122.568"/>
<path fill="none" stroke="#F9BBB4" stroke-width="10" stroke-linecap="round" stroke-linejoin="round" stroke-miterlimit="10" d="
	M-45.91-390l-35.545,96.756"/>
<path fill="none" stroke="#F9BBB4" stroke-width="10" stroke-linecap="round" stroke-linejoin="round" stroke-miterlimit="10" d="
	M-25.579-335.177L-45.913-390"/>
<path fill="none" stroke="#F9BBB4" stroke-width="10" stroke-linecap="round" stroke-linejoin="round" stroke-miterlimit="10" d="
	M31.864-180.272l-57.443-154.906"/>
<path fill="none" stroke="#F9BBB4" stroke-width="10" stroke-linecap="round" stroke-linejoin="round" stroke-miterlimit="10" d="
	M43.612-148.589l-11.751-31.683"/>
<path fill="none" stroke="#F9BBB4" stroke-width="10" stroke-linecap="round" stroke-linejoin="round" stroke-miterlimit="10" d="
	M-68.315-223.837h-38.091"/>
<path fill="none" stroke="#F9BBB4" stroke-width="10" stroke-linecap="round" stroke-linejoin="round" stroke-miterlimit="10" d="
	M14.716-223.837h-83.029"/>
<path fill="none" stroke="#F9BBB4" stroke-width="10" stroke-linecap="round" stroke-linejoin="round" stroke-miterlimit="10" d="
	M240.005-147.177c14.216-2.472,28.866-7.43,37.857-12.818"/>
<path fill="none" stroke="#F9BBB4" stroke-width="10" stroke-linecap="round" stroke-linejoin="round" stroke-miterlimit="10" d="
	M137.442-258.711v28.862c0,46.574,32.042,84.327,85.198,84.327c5.404-0.002,11.347-0.61,17.369-1.652"/>
<path fill="none" stroke="#F9BBB4" stroke-width="10" stroke-linecap="round" stroke-linejoin="round" stroke-miterlimit="10" d="
	M138.307-318.738c-0.57,4.258-0.865,8.622-0.865,13.065v46.957"/>
<path fill="none" stroke="#F9BBB4" stroke-width="10" stroke-linecap="round" stroke-linejoin="round" stroke-miterlimit="10" d="
	M164.482-369.508c-14.39,12.77-23.455,30.59-26.175,50.771"/>
<path fill="none" stroke="#F9BBB4" stroke-width="10" stroke-linecap="round" stroke-linejoin="round" stroke-miterlimit="10" d="
	M246.691-387.022c-8.235-1.859-16.644-2.982-24.051-2.978c-24.041,0-43.763,7.717-58.158,20.493"/>
<path fill="none" stroke="#F9BBB4" stroke-width="10" stroke-linecap="round" stroke-linejoin="round" stroke-miterlimit="10" d="
	M277.866-375.542c-7.59-4.549-19.196-8.784-31.176-11.48"/>
<path fill="none" stroke="#F9BBB4" stroke-width="10" stroke-linecap="round" stroke-linejoin="round" stroke-miterlimit="10" d="
	M393.073-355.594V-390"/>
<path fill="none" stroke="#F9BBB4" stroke-width="10" stroke-linecap="round" stroke-linejoin="round" stroke-miterlimit="10" d="
	M393.073-227.469v-128.124"/>
<path fill="none" stroke="#F9BBB4" stroke-width="10" stroke-linecap="round" stroke-linejoin="round" stroke-miterlimit="10" d="
	M393.073-171.558v-55.913"/>
<path fill="none" stroke="#F9BBB4" stroke-width="10" stroke-linecap="round" stroke-linejoin="round" stroke-miterlimit="10" d="
	M393.073-148.433v-23.126"/>
<path fill="none" stroke="#F9BBB4" stroke-width="10" stroke-linecap="round" stroke-linejoin="round" stroke-miterlimit="10" d="
	M497.999-364.348L521.903-390"/>
<path fill="none" stroke="#F9BBB4" stroke-width="10" stroke-linecap="round" stroke-linejoin="round" stroke-miterlimit="10" d="
	M462.003-325.724l35.996-38.622"/>
<path fill="none" stroke="#F9BBB4" stroke-width="10" stroke-linecap="round" stroke-linejoin="round" stroke-miterlimit="10" d="
	M439.44-234.966l-33.649-30.432l56.213-60.328"/>
<path fill="none" stroke="#F9BBB4" stroke-width="10" stroke-linecap="round" stroke-linejoin="round" stroke-miterlimit="10" d="
	M511.621-169.678l-72.175-65.286"/>
<path fill="none" stroke="#F9BBB4" stroke-width="10" stroke-linecap="round" stroke-linejoin="round" stroke-miterlimit="10" d="
	M535.116-148.424l-23.495-21.255"/>
<g id="letter-4">
</g>
<g id="letter-8">
</g>
<path fill="none" stroke="#F9BBB4" stroke-width="10" stroke-linecap="round" stroke-linejoin="round" stroke-miterlimit="10" d="
	M-188.873,149.126v62.321"/>
<path fill="none" stroke="#F9BBB4" stroke-width="10" stroke-linecap="round" stroke-linejoin="round" stroke-miterlimit="10" d="
	M-188.873,48.973v100.153"/>
<path fill="none" stroke="#F9BBB4" stroke-width="10" stroke-linecap="round" stroke-linejoin="round" stroke-miterlimit="10" d="
	M-188.873-30.003v78.976"/>
<path fill="none" stroke="#F9BBB4" stroke-width="10" stroke-linecap="round" stroke-linejoin="round" stroke-miterlimit="10" d="
	M-273.01-30.003h-10.14"/>
<path fill="none" stroke="#F9BBB4" stroke-width="10" stroke-linecap="round" stroke-linejoin="round" stroke-miterlimit="10" d="
	M-188.873-30.003h-84.139"/>
<path fill="none" stroke="#F9BBB4" stroke-width="10" stroke-linecap="round" stroke-linejoin="round" stroke-miterlimit="10" d="
	M-137.894-30.003h-50.977"/>
<path fill="none" stroke="#F9BBB4" stroke-width="10" stroke-linecap="round" stroke-linejoin="round" stroke-miterlimit="10" d="
	M-94.626-30.003h-43.268"/>
<path fill="none" stroke="#F9BBB4" stroke-width="10" stroke-linecap="round" stroke-linejoin="round" stroke-miterlimit="10" d="
	M12.867,149.093v64.022"/>
<path fill="none" stroke="#F9BBB4" stroke-width="10" stroke-linecap="round" stroke-linejoin="round" stroke-miterlimit="10" d="
	M12.867,51.274v97.826"/>
<path fill="none" stroke="#F9BBB4" stroke-width="10" stroke-linecap="round" stroke-linejoin="round" stroke-miterlimit="10" d="
	M12.867,7.012v44.26"/>
<path fill="none" stroke="#F9BBB4" stroke-width="10" stroke-linecap="round" stroke-linejoin="round" stroke-miterlimit="10" d="
	M12.867-30.003V7.013"/>
<path fill="none" stroke="#F9BBB4" stroke-width="10" stroke-linecap="round" stroke-linejoin="round" stroke-miterlimit="10" d="
	M142.047,156.078v57.037"/>
<path fill="none" stroke="#F9BBB4" stroke-width="10" stroke-linecap="round" stroke-linejoin="round" stroke-miterlimit="10" d="
	M142.047,74.569v81.512"/>
<path fill="none" stroke="#F9BBB4" stroke-width="10" stroke-linecap="round" stroke-linejoin="round" stroke-miterlimit="10" d="
	M142.047-2.306v76.875"/>
<path fill="none" stroke="#F9BBB4" stroke-width="10" stroke-linecap="round" stroke-linejoin="round" stroke-miterlimit="10" d="
	M142.047-30.003v27.696"/>
<path fill="none" stroke="#F9BBB4" stroke-width="10" stroke-linecap="round" stroke-linejoin="round" stroke-miterlimit="10" d="
	M33.686,97.316H12.87"/>
<path fill="none" stroke="#F9BBB4" stroke-width="10" stroke-linecap="round" stroke-linejoin="round" stroke-miterlimit="10" d="
	M98.921,97.316H33.686"/>
<path fill="none" stroke="#F9BBB4" stroke-width="10" stroke-linecap="round" stroke-linejoin="round" stroke-miterlimit="10" d="
	M142.047,97.316H98.918"/>
<path fill="none" stroke="#F9BBB4" stroke-width="10" stroke-linecap="round" stroke-linejoin="round" stroke-miterlimit="10" d="
	M375.436,210.758h30.109"/>
<path fill="none" stroke="#F9BBB4" stroke-width="10" stroke-linecap="round" stroke-linejoin="round" stroke-miterlimit="10" d="
	M342.822,210.758h32.613"/>
<path fill="none" stroke="#F9BBB4" stroke-width="10" stroke-linecap="round" stroke-linejoin="round" stroke-miterlimit="10" d="
	M268.854,210.758h73.968"/>
<path fill="none" stroke="#F9BBB4" stroke-width="10" stroke-linecap="round" stroke-linejoin="round" stroke-miterlimit="10" d="
	M268.854,164.545v46.213"/>
<path fill="none" stroke="#F9BBB4" stroke-width="10" stroke-linecap="round" stroke-linejoin="round" stroke-miterlimit="10" d="
	M268.854,38.771v125.774"/>
<path fill="none" stroke="#F9BBB4" stroke-width="10" stroke-linecap="round" stroke-linejoin="round" stroke-miterlimit="10" d="
	M314.869-30.003h-46.016v68.774"/>
<path fill="none" stroke="#F9BBB4" stroke-width="10" stroke-linecap="round" stroke-linejoin="round" stroke-miterlimit="10" d="
	M373.11-30.003h-58.24"/>
<path fill="none" stroke="#F9BBB4" stroke-width="10" stroke-linecap="round" stroke-linejoin="round" stroke-miterlimit="10" d="
	M402.538-30.003H373.11"/>
<path fill="none" stroke="#F9BBB4" stroke-width="10" stroke-linecap="round" stroke-linejoin="round" stroke-miterlimit="10" d="
	M321.86,87.24h-53.006"/>
<path fill="none" stroke="#F9BBB4" stroke-width="10" stroke-linecap="round" stroke-linejoin="round" stroke-miterlimit="10" d="
	M373.11,87.24h-51.25"/>
<path fill="none" stroke="#F9BBB4" stroke-width="10" stroke-linecap="round" stroke-linejoin="round" stroke-miterlimit="10" d="
	M396.738,87.24h-23.632"/>
<g id="letter-9">
</g>
<path fill="none" stroke="#F9BBB4" stroke-width="10" stroke-linecap="round" stroke-linejoin="round" stroke-miterlimit="10" d="
	M-322.69,443.166h-64.456"/>
<path fill="none" stroke="#F9BBB4" stroke-width="10" stroke-linecap="round" stroke-linejoin="round" stroke-miterlimit="10" d="
	M-285.339,440.826c-4.71,1.523-9.551,2.338-14.354,2.338h-22.997"/>
<path fill="none" stroke="#F9BBB4" stroke-width="10" stroke-linecap="round" stroke-linejoin="round" stroke-miterlimit="10" d="
	M-261.15,344.236c9.24,9.899,15.178,24.004,15.178,40.834c0,27.541-18.268,48.883-39.359,55.76"/>
<path fill="none" stroke="#F9BBB4" stroke-width="10" stroke-linecap="round" stroke-linejoin="round" stroke-miterlimit="10" d="
	M-296.134,328.644c13.208,0,25.754,5.683,34.991,15.587"/>
<path fill="none" stroke="#F9BBB4" stroke-width="10" stroke-linecap="round" stroke-linejoin="round" stroke-miterlimit="10" d="
	M-387.145,328.644h91.008"/>
<path fill="none" stroke="#F9BBB4" stroke-width="10" stroke-linecap="round" stroke-linejoin="round" stroke-miterlimit="10" d="
	M-387.145,386.988V328.64"/>
<path fill="none" stroke="#F9BBB4" stroke-width="10" stroke-linecap="round" stroke-linejoin="round" stroke-miterlimit="10" d="
	M-387.145,443.166v-56.168"/>
<path fill="none" stroke="#F9BBB4" stroke-width="10" stroke-linecap="round" stroke-linejoin="round" stroke-miterlimit="10" d="
	M-387.145,501.136v-57.975"/>
<path fill="none" stroke="#F9BBB4" stroke-width="10" stroke-linecap="round" stroke-linejoin="round" stroke-miterlimit="10" d="
	M-322.693,567.746h-64.453v-66.613"/>
<path fill="none" stroke="#F9BBB4" stroke-width="10" stroke-linecap="round" stroke-linejoin="round" stroke-miterlimit="10" d="
	M-251.245,545.775c-10.391,13.607-25.404,21.975-40.133,21.975h-31.307"/>
<path fill="none" stroke="#F9BBB4" stroke-width="10" stroke-linecap="round" stroke-linejoin="round" stroke-miterlimit="10" d="
	M-244.892,477.304c4.514,8.275,7.233,17.682,7.233,27.791c0,15.816-5.34,29.896-13.583,40.689"/>
<path fill="none" stroke="#F9BBB4" stroke-width="10" stroke-linecap="round" stroke-linejoin="round" stroke-miterlimit="10" d="
	M-297.363,443.013c18.858,0,41.216,13.621,52.468,34.289"/>
<path fill="none" stroke="#F9BBB4" stroke-width="10" stroke-linecap="round" stroke-linejoin="round" stroke-miterlimit="10" d="
	M-13.972,561.324c23.853-12.748,37.366-37.605,37.366-66.184v-61.023"/>
<path fill="none" stroke="#F9BBB4" stroke-width="10" stroke-linecap="round" stroke-linejoin="round" stroke-miterlimit="10" d="
	M-128.74,469.052v26.086c0,41.588,28.604,75.281,76.066,75.281c14.846,0,27.846-3.297,38.693-9.098"/>
<path fill="none" stroke="#F9BBB4" stroke-width="10" stroke-linecap="round" stroke-linejoin="round" stroke-miterlimit="10" d="
	M-107.368,349.533c-13.801,13.708-21.372,33.011-21.372,54.402v65.121"/>
<path fill="none" stroke="#F9BBB4" stroke-width="10" stroke-linecap="round" stroke-linejoin="round" stroke-miterlimit="10" d="
	M-80.493,333.027c-10.567,3.605-19.591,9.273-26.876,16.508"/>
<path fill="none" stroke="#F9BBB4" stroke-width="10" stroke-linecap="round" stroke-linejoin="round" stroke-miterlimit="10" d="
	M-18.994,335.298c-9.772-4.28-21.058-6.652-33.676-6.652c-10.171,0-19.476,1.547-27.821,4.387"/>
<path fill="none" stroke="#F9BBB4" stroke-width="10" stroke-linecap="round" stroke-linejoin="round" stroke-miterlimit="10" d="
	M23.394,434.113v-30.178c0-30.529-15.407-56.819-42.384-68.632"/>
<path fill="none" stroke="#F9BBB4" stroke-width="10" stroke-linecap="round" stroke-linejoin="round" stroke-miterlimit="10" d="
	M253.294,348.428c19.339,16.125,30.031,40.664,30.031,68.15v21.299"/>
<path fill="none" stroke="#F9BBB4" stroke-width="10" stroke-linecap="round" stroke-linejoin="round" stroke-miterlimit="10" d="
	M194.476,328.644c24.065,0,43.984,7.411,58.818,19.784"/>
<path fill="none" stroke="#F9BBB4" stroke-width="10" stroke-linecap="round" stroke-linejoin="round" stroke-miterlimit="10" d="
	M137.406,365.65v-37.006h57.073"/>
<path fill="none" stroke="#F9BBB4" stroke-width="10" stroke-linecap="round" stroke-linejoin="round" stroke-miterlimit="10" d="
	M137.406,500.765V365.65"/>
<path fill="none" stroke="#F9BBB4" stroke-width="10" stroke-linecap="round" stroke-linejoin="round" stroke-miterlimit="10" d="
	M137.406,570.638v-69.867"/>
<path fill="none" stroke="#F9BBB4" stroke-width="10" stroke-linecap="round" stroke-linejoin="round" stroke-miterlimit="10" d="
	M219.163,567.783c-7.641,1.863-15.876,2.855-24.684,2.855h-57.072"/>
<path fill="none" stroke="#F9BBB4" stroke-width="10" stroke-linecap="round" stroke-linejoin="round" stroke-miterlimit="10" d="
	M274.896,522.502c-10.228,22.133-29.422,38.861-55.732,45.281"/>
<path fill="none" stroke="#F9BBB4" stroke-width="10" stroke-linecap="round" stroke-linejoin="round" stroke-miterlimit="10" d="
	M283.325,437.869v44.824c0,14.332-2.907,27.859-8.43,39.811"/>
<path fill="none" stroke="#F9BBB4" stroke-width="10" stroke-linecap="round" stroke-linejoin="round" stroke-miterlimit="10" d="
	M456.911,523.355v45.689"/>
<path fill="none" stroke="#F9BBB4" stroke-width="10" stroke-linecap="round" stroke-linejoin="round" stroke-miterlimit="10" d="
	M456.911,453.295v70.055"/>
<path fill="none" stroke="#F9BBB4" stroke-width="10" stroke-linecap="round" stroke-linejoin="round" stroke-miterlimit="10" d="
	M522.208,361.771l23.641-33.129"/>
<path fill="none" stroke="#F9BBB4" stroke-width="10" stroke-linecap="round" stroke-linejoin="round" stroke-miterlimit="10" d="
	M483.84,415.558l38.371-53.787"/>
<path fill="none" stroke="#F9BBB4" stroke-width="10" stroke-linecap="round" stroke-linejoin="round" stroke-miterlimit="10" d="
	M422.657,405.299l34.255,48l26.932-37.744"/>
<path fill="none" stroke="#F9BBB4" stroke-width="10" stroke-linecap="round" stroke-linejoin="round" stroke-miterlimit="10" d="
	M367.964,328.644l54.695,76.649"/>
</svg>
