<?xml version="1.0" encoding="utf-8"?>
<!-- Generator: Adobe Illustrator 16.0.0, SVG Export Plug-In . SVG Version: 6.00 Build 0)  -->
<!DOCTYPE svg PUBLIC "-//W3C//DTD SVG 1.1//EN" "http://www.w3.org/Graphics/SVG/1.1/DTD/svg11.dtd">
<svg version="1.1" id="Layer_1" xmlns="http://www.w3.org/2000/svg" xmlns:xlink="http://www.w3.org/1999/xlink" x="0px" y="0px"
	 width="700px" height="700px" viewBox="0 0 700 700" enable-background="new 0 0 700 700" xml:space="preserve">
<path fill="none" stroke="#F9BBB4" stroke-width="10" stroke-linecap="round" stroke-linejoin="round" stroke-miterlimit="10" d="
	M50.278,135.089v35.09"/>
<path fill="none" stroke="#F9BBB4" stroke-width="10" stroke-linecap="round" stroke-linejoin="round" stroke-miterlimit="10" d="
	M50.278,81.478v53.609"/>
<path fill="none" stroke="#F9BBB4" stroke-width="10" stroke-linecap="round" stroke-linejoin="round" stroke-miterlimit="10" d="
	M50.278,57.226v24.252"/>
<path fill="none" stroke="#F9BBB4" stroke-width="10" stroke-linecap="round" stroke-linejoin="round" stroke-miterlimit="10" d="
	M50.278,36.945v20.282"/>
<path fill="none" stroke="#F9BBB4" stroke-width="10" stroke-linecap="round" stroke-linejoin="round" stroke-miterlimit="10" d="
	M121.056,138.918v31.261"/>
<path fill="none" stroke="#F9BBB4" stroke-width="10" stroke-linecap="round" stroke-linejoin="round" stroke-miterlimit="10" d="
	M121.056,94.242v44.675"/>
<path fill="none" stroke="#F9BBB4" stroke-width="10" stroke-linecap="round" stroke-linejoin="round" stroke-miterlimit="10" d="
	M121.056,52.12v42.122"/>
<path fill="none" stroke="#F9BBB4" stroke-width="10" stroke-linecap="round" stroke-linejoin="round" stroke-miterlimit="10" d="
	M121.056,36.945v15.176"/>
<path fill="none" stroke="#F9BBB4" stroke-width="10" stroke-linecap="round" stroke-linejoin="round" stroke-miterlimit="10" d="
	M61.688,106.705h-11.41"/>
<path fill="none" stroke="#F9BBB4" stroke-width="10" stroke-linecap="round" stroke-linejoin="round" stroke-miterlimit="10" d="
	M97.428,106.705h-35.74"/>
<path fill="none" stroke="#F9BBB4" stroke-width="10" stroke-linecap="round" stroke-linejoin="round" stroke-miterlimit="10" d="
	M121.056,106.705H97.428"/>
<path fill="none" stroke="#F9BBB4" stroke-width="10" stroke-linecap="round" stroke-linejoin="round" stroke-miterlimit="10" d="
	M187.228,157.121l-4.44,12.101"/>
<path fill="none" stroke="#F9BBB4" stroke-width="10" stroke-linecap="round" stroke-linejoin="round" stroke-miterlimit="10" d="
	M211.896,89.961l-24.667,67.159"/>
<path fill="none" stroke="#F9BBB4" stroke-width="10" stroke-linecap="round" stroke-linejoin="round" stroke-miterlimit="10" d="
	M231.37,36.945l-19.476,53.016"/>
<path fill="none" stroke="#F9BBB4" stroke-width="10" stroke-linecap="round" stroke-linejoin="round" stroke-miterlimit="10" d="
	M242.51,66.984l-11.142-30.039"/>
<path fill="none" stroke="#F9BBB4" stroke-width="10" stroke-linecap="round" stroke-linejoin="round" stroke-miterlimit="10" d="
	M273.985,151.862L242.51,66.984"/>
<path fill="none" stroke="#F9BBB4" stroke-width="10" stroke-linecap="round" stroke-linejoin="round" stroke-miterlimit="10" d="
	M280.422,169.222l-6.438-17.36"/>
<path fill="none" stroke="#F9BBB4" stroke-width="10" stroke-linecap="round" stroke-linejoin="round" stroke-miterlimit="10" d="
	M219.094,127.991h-20.871"/>
<path fill="none" stroke="#F9BBB4" stroke-width="10" stroke-linecap="round" stroke-linejoin="round" stroke-miterlimit="10" d="
	M264.589,127.991h-45.494"/>
<path fill="none" stroke="#F9BBB4" stroke-width="10" stroke-linecap="round" stroke-linejoin="round" stroke-miterlimit="10" d="
	M388.032,169.996c7.79-1.355,15.817-4.071,20.744-7.024"/>
<path fill="none" stroke="#F9BBB4" stroke-width="10" stroke-linecap="round" stroke-linejoin="round" stroke-miterlimit="10" d="
	M331.834,108.883v15.814c0,25.52,17.557,46.205,46.683,46.205c2.962-0.001,6.218-0.334,9.517-0.905"/>
<path fill="none" stroke="#F9BBB4" stroke-width="10" stroke-linecap="round" stroke-linejoin="round" stroke-miterlimit="10" d="
	M332.309,75.992c-0.313,2.333-0.475,4.724-0.475,7.159v25.729"/>
<path fill="none" stroke="#F9BBB4" stroke-width="10" stroke-linecap="round" stroke-linejoin="round" stroke-miterlimit="10" d="
	M346.651,48.174c-7.885,6.997-12.852,16.761-14.342,27.819"/>
<path fill="none" stroke="#F9BBB4" stroke-width="10" stroke-linecap="round" stroke-linejoin="round" stroke-miterlimit="10" d="
	M391.696,38.577c-4.513-1.019-9.121-1.634-13.179-1.632c-13.173,0-23.979,4.229-31.866,11.229"/>
<path fill="none" stroke="#F9BBB4" stroke-width="10" stroke-linecap="round" stroke-linejoin="round" stroke-miterlimit="10" d="
	M408.778,44.867c-4.16-2.492-10.519-4.813-17.082-6.29"/>
<path fill="none" stroke="#F9BBB4" stroke-width="10" stroke-linecap="round" stroke-linejoin="round" stroke-miterlimit="10" d="
	M471.903,55.798V36.945"/>
<path fill="none" stroke="#F9BBB4" stroke-width="10" stroke-linecap="round" stroke-linejoin="round" stroke-miterlimit="10" d="
	M471.903,126.001V55.798"/>
<path fill="none" stroke="#F9BBB4" stroke-width="10" stroke-linecap="round" stroke-linejoin="round" stroke-miterlimit="10" d="
	M471.903,156.636v-30.636"/>
<path fill="none" stroke="#F9BBB4" stroke-width="10" stroke-linecap="round" stroke-linejoin="round" stroke-miterlimit="10" d="
	M471.903,169.307v-12.672"/>
<path fill="none" stroke="#F9BBB4" stroke-width="10" stroke-linecap="round" stroke-linejoin="round" stroke-miterlimit="10" d="
	M529.395,51.001l13.098-14.056"/>
<path fill="none" stroke="#F9BBB4" stroke-width="10" stroke-linecap="round" stroke-linejoin="round" stroke-miterlimit="10" d="
	M509.672,72.164l19.723-21.162"/>
<path fill="none" stroke="#F9BBB4" stroke-width="10" stroke-linecap="round" stroke-linejoin="round" stroke-miterlimit="10" d="
	M497.309,121.893l-18.437-16.675l30.8-33.055"/>
<path fill="none" stroke="#F9BBB4" stroke-width="10" stroke-linecap="round" stroke-linejoin="round" stroke-miterlimit="10" d="
	M536.859,157.667l-39.547-35.773"/>
<path fill="none" stroke="#F9BBB4" stroke-width="10" stroke-linecap="round" stroke-linejoin="round" stroke-miterlimit="10" d="
	M549.733,169.312l-12.874-11.646"/>
<g id="letter-4">
</g>
<g id="letter-8">
</g>
<path fill="none" stroke="#F9BBB4" stroke-width="10" stroke-linecap="round" stroke-linejoin="round" stroke-miterlimit="10" d="
	M153.036,332.349v34.148"/>
<path fill="none" stroke="#F9BBB4" stroke-width="10" stroke-linecap="round" stroke-linejoin="round" stroke-miterlimit="10" d="
	M153.036,277.472v54.877"/>
<path fill="none" stroke="#F9BBB4" stroke-width="10" stroke-linecap="round" stroke-linejoin="round" stroke-miterlimit="10" d="
	M153.036,234.199v43.273"/>
<path fill="none" stroke="#F9BBB4" stroke-width="10" stroke-linecap="round" stroke-linejoin="round" stroke-miterlimit="10" d="
	M106.935,234.199h-5.556"/>
<path fill="none" stroke="#F9BBB4" stroke-width="10" stroke-linecap="round" stroke-linejoin="round" stroke-miterlimit="10" d="
	M153.036,234.199h-46.102"/>
<path fill="none" stroke="#F9BBB4" stroke-width="10" stroke-linecap="round" stroke-linejoin="round" stroke-miterlimit="10" d="
	M180.969,234.199h-27.932"/>
<path fill="none" stroke="#F9BBB4" stroke-width="10" stroke-linecap="round" stroke-linejoin="round" stroke-miterlimit="10" d="
	M204.677,234.199h-23.708"/>
<path fill="none" stroke="#F9BBB4" stroke-width="10" stroke-linecap="round" stroke-linejoin="round" stroke-miterlimit="10" d="
	M263.576,332.332v35.079"/>
<path fill="none" stroke="#F9BBB4" stroke-width="10" stroke-linecap="round" stroke-linejoin="round" stroke-miterlimit="10" d="
	M263.576,278.733v53.601"/>
<path fill="none" stroke="#F9BBB4" stroke-width="10" stroke-linecap="round" stroke-linejoin="round" stroke-miterlimit="10" d="
	M263.576,254.48v24.252"/>
<path fill="none" stroke="#F9BBB4" stroke-width="10" stroke-linecap="round" stroke-linejoin="round" stroke-miterlimit="10" d="
	M263.576,234.199v20.282"/>
<path fill="none" stroke="#F9BBB4" stroke-width="10" stroke-linecap="round" stroke-linejoin="round" stroke-miterlimit="10" d="
	M334.358,336.159v31.252"/>
<path fill="none" stroke="#F9BBB4" stroke-width="10" stroke-linecap="round" stroke-linejoin="round" stroke-miterlimit="10" d="
	M334.358,291.497v44.663"/>
<path fill="none" stroke="#F9BBB4" stroke-width="10" stroke-linecap="round" stroke-linejoin="round" stroke-miterlimit="10" d="
	M334.358,249.375v42.122"/>
<path fill="none" stroke="#F9BBB4" stroke-width="10" stroke-linecap="round" stroke-linejoin="round" stroke-miterlimit="10" d="
	M334.358,234.199v15.176"/>
<path fill="none" stroke="#F9BBB4" stroke-width="10" stroke-linecap="round" stroke-linejoin="round" stroke-miterlimit="10" d="
	M274.984,303.96h-11.407"/>
<path fill="none" stroke="#F9BBB4" stroke-width="10" stroke-linecap="round" stroke-linejoin="round" stroke-miterlimit="10" d="
	M310.728,303.96h-35.744"/>
<path fill="none" stroke="#F9BBB4" stroke-width="10" stroke-linecap="round" stroke-linejoin="round" stroke-miterlimit="10" d="
	M334.358,303.96h-23.632"/>
<path fill="none" stroke="#F9BBB4" stroke-width="10" stroke-linecap="round" stroke-linejoin="round" stroke-miterlimit="10" d="
	M462.24,366.12h16.497"/>
<path fill="none" stroke="#F9BBB4" stroke-width="10" stroke-linecap="round" stroke-linejoin="round" stroke-miterlimit="10" d="
	M444.369,366.12h17.87"/>
<path fill="none" stroke="#F9BBB4" stroke-width="10" stroke-linecap="round" stroke-linejoin="round" stroke-miterlimit="10" d="
	M403.839,366.12h40.53"/>
<path fill="none" stroke="#F9BBB4" stroke-width="10" stroke-linecap="round" stroke-linejoin="round" stroke-miterlimit="10" d="
	M403.839,340.797v25.323"/>
<path fill="none" stroke="#F9BBB4" stroke-width="10" stroke-linecap="round" stroke-linejoin="round" stroke-miterlimit="10" d="
	M403.839,271.883v68.914"/>
<path fill="none" stroke="#F9BBB4" stroke-width="10" stroke-linecap="round" stroke-linejoin="round" stroke-miterlimit="10" d="
	M429.053,234.199h-25.214v37.684"/>
<path fill="none" stroke="#F9BBB4" stroke-width="10" stroke-linecap="round" stroke-linejoin="round" stroke-miterlimit="10" d="
	M460.964,234.199h-31.911"/>
<path fill="none" stroke="#F9BBB4" stroke-width="10" stroke-linecap="round" stroke-linejoin="round" stroke-miterlimit="10" d="
	M477.089,234.199h-16.125"/>
<path fill="none" stroke="#F9BBB4" stroke-width="10" stroke-linecap="round" stroke-linejoin="round" stroke-miterlimit="10" d="
	M432.883,298.44h-29.044"/>
<path fill="none" stroke="#F9BBB4" stroke-width="10" stroke-linecap="round" stroke-linejoin="round" stroke-miterlimit="10" d="
	M460.964,298.44h-28.081"/>
<path fill="none" stroke="#F9BBB4" stroke-width="10" stroke-linecap="round" stroke-linejoin="round" stroke-miterlimit="10" d="
	M473.912,298.44h-12.95"/>
<g id="letter-9">
</g>
<path fill="none" stroke="#F9BBB4" stroke-width="10" stroke-linecap="round" stroke-linejoin="round" stroke-miterlimit="10" d="
	M79.714,493.463H44.397"/>
<path fill="none" stroke="#F9BBB4" stroke-width="10" stroke-linecap="round" stroke-linejoin="round" stroke-miterlimit="10" d="
	M100.18,492.18c-2.581,0.835-5.233,1.281-7.865,1.281H79.714"/>
<path fill="none" stroke="#F9BBB4" stroke-width="10" stroke-linecap="round" stroke-linejoin="round" stroke-miterlimit="10" d="
	M113.434,439.255c5.062,5.425,8.316,13.154,8.316,22.375c0,15.09-10.01,26.785-21.566,30.552"/>
<path fill="none" stroke="#F9BBB4" stroke-width="10" stroke-linecap="round" stroke-linejoin="round" stroke-miterlimit="10" d="
	M94.265,430.712c7.237,0,14.111,3.115,19.173,8.541"/>
<path fill="none" stroke="#F9BBB4" stroke-width="10" stroke-linecap="round" stroke-linejoin="round" stroke-miterlimit="10" d="
	M44.397,430.712h49.866"/>
<path fill="none" stroke="#F9BBB4" stroke-width="10" stroke-linecap="round" stroke-linejoin="round" stroke-miterlimit="10" d="
	M44.397,462.681v-31.971"/>
<path fill="none" stroke="#F9BBB4" stroke-width="10" stroke-linecap="round" stroke-linejoin="round" stroke-miterlimit="10" d="
	M44.397,493.463v-30.777"/>
<path fill="none" stroke="#F9BBB4" stroke-width="10" stroke-linecap="round" stroke-linejoin="round" stroke-miterlimit="10" d="
	M44.397,525.227v-31.767"/>
<path fill="none" stroke="#F9BBB4" stroke-width="10" stroke-linecap="round" stroke-linejoin="round" stroke-miterlimit="10" d="
	M79.712,561.723H44.397v-36.499"/>
<path fill="none" stroke="#F9BBB4" stroke-width="10" stroke-linecap="round" stroke-linejoin="round" stroke-miterlimit="10" d="
	M118.861,549.686c-5.694,7.455-13.92,12.04-21.991,12.04H79.716"/>
<path fill="none" stroke="#F9BBB4" stroke-width="10" stroke-linecap="round" stroke-linejoin="round" stroke-miterlimit="10" d="
	M122.342,512.168c2.473,4.535,3.963,9.688,3.963,15.228c0,8.666-2.926,16.382-7.442,22.294"/>
<path fill="none" stroke="#F9BBB4" stroke-width="10" stroke-linecap="round" stroke-linejoin="round" stroke-miterlimit="10" d="
	M93.591,493.378c10.333,0,22.584,7.465,28.749,18.79"/>
<path fill="none" stroke="#F9BBB4" stroke-width="10" stroke-linecap="round" stroke-linejoin="round" stroke-miterlimit="10" d="
	M248.87,558.206c13.07-6.986,20.474-20.606,20.474-36.264v-33.438"/>
<path fill="none" stroke="#F9BBB4" stroke-width="10" stroke-linecap="round" stroke-linejoin="round" stroke-miterlimit="10" d="
	M185.986,507.647v14.293c0,22.787,15.672,41.249,41.678,41.249c8.135,0,15.258-1.807,21.201-4.985"/>
<path fill="none" stroke="#F9BBB4" stroke-width="10" stroke-linecap="round" stroke-linejoin="round" stroke-miterlimit="10" d="
	M197.696,442.158c-7.563,7.512-11.71,18.089-11.71,29.808v35.683"/>
<path fill="none" stroke="#F9BBB4" stroke-width="10" stroke-linecap="round" stroke-linejoin="round" stroke-miterlimit="10" d="
	M212.421,433.115c-5.79,1.974-10.734,5.08-14.726,9.045"/>
<path fill="none" stroke="#F9BBB4" stroke-width="10" stroke-linecap="round" stroke-linejoin="round" stroke-miterlimit="10" d="
	M246.118,434.359c-5.354-2.346-11.538-3.646-18.452-3.646c-5.573,0-10.672,0.848-15.244,2.405"/>
<path fill="none" stroke="#F9BBB4" stroke-width="10" stroke-linecap="round" stroke-linejoin="round" stroke-miterlimit="10" d="
	M269.344,488.502v-16.536c0-16.727-8.442-31.132-23.224-37.605"/>
<path fill="none" stroke="#F9BBB4" stroke-width="10" stroke-linecap="round" stroke-linejoin="round" stroke-miterlimit="10" d="
	M395.313,441.553c10.597,8.834,16.456,22.28,16.456,37.342v11.67"/>
<path fill="none" stroke="#F9BBB4" stroke-width="10" stroke-linecap="round" stroke-linejoin="round" stroke-miterlimit="10" d="
	M363.085,430.712c13.186,0,24.1,4.062,32.228,10.841"/>
<path fill="none" stroke="#F9BBB4" stroke-width="10" stroke-linecap="round" stroke-linejoin="round" stroke-miterlimit="10" d="
	M331.815,450.99v-20.278h31.271"/>
<path fill="none" stroke="#F9BBB4" stroke-width="10" stroke-linecap="round" stroke-linejoin="round" stroke-miterlimit="10" d="
	M331.815,525.024V450.99"/>
<path fill="none" stroke="#F9BBB4" stroke-width="10" stroke-linecap="round" stroke-linejoin="round" stroke-miterlimit="10" d="
	M331.815,563.308v-38.281"/>
<path fill="none" stroke="#F9BBB4" stroke-width="10" stroke-linecap="round" stroke-linejoin="round" stroke-miterlimit="10" d="
	M376.613,561.744c-4.187,1.021-8.7,1.565-13.526,1.565h-31.271"/>
<path fill="none" stroke="#F9BBB4" stroke-width="10" stroke-linecap="round" stroke-linejoin="round" stroke-miterlimit="10" d="
	M407.15,536.933c-5.604,12.127-16.12,21.294-30.537,24.811"/>
<path fill="none" stroke="#F9BBB4" stroke-width="10" stroke-linecap="round" stroke-linejoin="round" stroke-miterlimit="10" d="
	M411.769,490.56v24.562c0,7.851-1.593,15.263-4.619,21.812"/>
<path fill="none" stroke="#F9BBB4" stroke-width="10" stroke-linecap="round" stroke-linejoin="round" stroke-miterlimit="10" d="
	M506.881,537.402v25.033"/>
<path fill="none" stroke="#F9BBB4" stroke-width="10" stroke-linecap="round" stroke-linejoin="round" stroke-miterlimit="10" d="
	M506.881,499.012v38.386"/>
<path fill="none" stroke="#F9BBB4" stroke-width="10" stroke-linecap="round" stroke-linejoin="round" stroke-miterlimit="10" d="
	M542.66,448.864l12.954-18.153"/>
<path fill="none" stroke="#F9BBB4" stroke-width="10" stroke-linecap="round" stroke-linejoin="round" stroke-miterlimit="10" d="
	M521.637,478.335l21.025-29.471"/>
<path fill="none" stroke="#F9BBB4" stroke-width="10" stroke-linecap="round" stroke-linejoin="round" stroke-miterlimit="10" d="
	M488.114,472.714l18.769,26.3l14.756-20.68"/>
<path fill="none" stroke="#F9BBB4" stroke-width="10" stroke-linecap="round" stroke-linejoin="round" stroke-miterlimit="10" d="
	M458.145,430.712l29.97,41.999"/>
</svg>
